<svg width="25" height="24" viewBox="0 0 25 24" fill="none" xmlns="http://www.w3.org/2000/svg">
<path d="M19.6662 6.23206L12.8414 2.85194C12.7444 2.80388 12.6394 2.77905 12.5332 2.77905C12.427 2.77905 12.322 2.80388 12.2249 2.85194L5.40012 6.23206C5.38495 6.23967 5.37434 6.25234 5.35917 6.26164C5.33794 6.27347 5.31519 6.28107 5.29547 6.29544C5.27879 6.30811 5.2659 6.32417 5.24997 6.33769C5.19454 6.38359 5.14592 6.43891 5.10589 6.50163C5.09073 6.52529 5.0748 6.54641 5.06115 6.57007C5.03858 6.61473 5.01931 6.66136 5.00352 6.7095C4.9967 6.73232 4.98608 6.75344 4.98001 6.77626C4.96097 6.85048 4.95102 6.92723 4.95044 7.00442V15.4547C4.95044 15.7894 5.12637 16.091 5.40088 16.2271L12.2257 19.6072C12.3243 19.6562 12.4289 19.6799 12.5335 19.6799C12.6391 19.6769 12.743 19.6492 12.8384 19.5987L12.8414 19.6072L19.6662 16.2271C19.8004 16.1608 19.9143 16.0525 19.9943 15.9154C20.0743 15.7783 20.1168 15.6182 20.1167 15.4547V7.00442C20.1168 6.8409 20.0743 6.68086 19.9943 6.54375C19.9143 6.40663 19.8004 6.29835 19.6662 6.23206ZM12.5335 4.54961L17.4914 7.00442L12.5335 9.45923L11.5417 8.96827L7.57647 7.00442L12.5335 4.54961ZM6.46706 14.9063V8.30492L11.7752 10.9338V17.5343L6.46706 14.9063ZM13.2919 17.5343V10.9338L18.6 8.30492V14.9063L13.2919 17.5343Z" fill="#333333"/>
<rect x="1.2373" y="0.744385" width="22.5919" height="21.8161" stroke="#333333" stroke-linejoin="bevel" stroke-dasharray="268.75 268.75"/>
</svg>
