<svg width="45" height="76" viewBox="0 0 45 76" fill="none" xmlns="http://www.w3.org/2000/svg">
<path d="M-13.4882 48.0847C-15.4319 49.65 -13.1615 50.79 -12.211 51.5112C-7.77769 53.6223 0.666757 55.7603 7.63336 55.7334C13.9668 55.7089 23.0748 54.1276 25.7889 52.3556C27.3411 50.581 26.5371 50.0755 26.5371 50.0755C26.5371 50.0755 5.36244 55.0395 -13.4882 48.0847Z" fill="#BE8B40"/>
<path d="M-12.3788 44.4339C-12.6449 44.3147 -15.6125 46.0309 -13.7439 48.6274C-13.2191 49.958 4.7082 53.8559 9.12903 53.1828C13.5499 52.5096 26.3795 51.5199 26.5928 50.1298C26.8061 48.7397 26.8223 45.4576 26.8223 45.4576C26.8223 45.4576 4.34816 51.9523 -12.3788 44.4339Z" fill="#59361F"/>
<path d="M-12.785 40.642C-15.3607 40.9147 -14.9468 43.6095 -14.3072 44.1184C-13.6675 44.6272 -10.6686 44.5278 -11.3474 46.6062C-12.0262 48.6846 -11.4538 51.1991 -10.1814 49.9354C-8.90907 48.6717 -6.45024 47.6489 -6.31834 48.8322C-6.18643 50.0154 -3.8551 51.8742 -3.28958 50.8386C-2.72405 49.803 -1.00946 52.7024 0.245839 52.0121C1.50113 51.3218 2.94347 49.7901 3.25047 50.579C3.55747 51.3679 9.01413 55.6765 9.49424 52.3491C9.97435 49.0217 13.009 51.4455 15.0541 51.1715C17.0991 50.8976 19.8255 51.9111 20.0904 50.5621C20.3552 49.2131 22.9527 50.3346 23.7469 51.3852C24.5411 52.4357 25.565 52.7016 26.0438 51.3356C26.5226 49.9696 25.1342 48.4539 25.1342 48.4539C25.1342 48.4539 27.4676 50.6007 27.9735 49.2338C28.4794 47.8668 28.091 46.2133 27.9282 45.7885C27.7655 45.3636 27.6336 44.1803 28.1992 44.025C28.7649 43.8697 27.8412 41.5419 26.7099 41.8655C25.5787 42.1891 -12.785 40.642 -12.785 40.642Z" fill="#86B240"/>
<path d="M-7.54102 26.2639C-7.54102 26.2639 -0.829801 45.6762 2.43651 50.6036C4.286 53.3948 5.00219 51.0594 7.18063 49.6028C9.35907 48.1462 15.0586 45.8149 15.2999 44.1237C15.5413 42.4325 -2.75433 26.1744 -2.75433 26.1744L-7.54102 26.2639Z" fill="#FEEA59"/>
<path d="M-2.47009 43.0528C-4.18599 42.9756 -11.4458 41.1918 -12.1273 41.6003C-12.8087 42.0087 -13.398 43.1034 -11.7189 44.3794C-9.87004 45.7886 -0.486663 48.1762 0.360567 47.3316C1.2078 46.4869 3.1148 43.2952 -2.47009 43.0528Z" fill="#E56627"/>
<path d="M11.2144 43.6004C9.57332 43.8767 2.41464 43.617 1.81849 44.1552C1.22235 44.6935 0.826763 45.8883 2.60274 46.7952C4.56326 47.7929 13.8243 48.2071 14.4956 47.2099C15.1669 46.2128 16.5591 42.702 11.2144 43.6004Z" fill="#E56627"/>
<path d="M22.4308 42.5689C21.2009 43.0156 15.6394 43.5298 15.2546 44.1093C14.8698 44.6889 14.7367 45.9071 16.2398 46.6C17.8972 47.3653 25.1072 46.7785 25.4828 45.7332C25.8583 44.6879 26.4272 41.1213 22.4308 42.5689Z" fill="#E56627"/>
<path d="M-11.9933 36.207C-12.2566 36.0704 -13.6429 40.4224 -13.1168 41.9352C-12.5907 43.448 5.10619 46.9814 9.52352 46.2378C13.9408 45.4942 26.7729 44.43 26.9849 42.8531C27.197 41.2761 27.213 37.5504 27.213 37.5504C27.213 37.5504 4.74132 44.8189 -11.9933 36.207Z" fill="#59361F"/>
<path d="M-12.3967 32.4178C-14.9754 32.6906 -14.5615 35.3821 -13.9219 35.8942C-13.2822 36.4064 -10.2833 36.3004 -10.9591 38.3819C-11.6348 40.4635 -11.0655 42.9717 -9.79617 41.7081C-8.52681 40.4444 -6.06496 39.4215 -5.93004 40.6047C-5.79513 41.7879 -3.46681 43.6468 -2.90128 42.6111C-2.33576 41.5755 -0.621165 44.4749 0.63413 43.7846C1.88942 43.0943 3.34982 41.5588 3.63874 42.3483C3.92766 43.1378 9.4024 47.4458 9.88552 44.1183C10.3686 40.7908 13.3973 43.2148 15.4425 42.957C17.4876 42.6993 20.2169 43.6932 20.4787 42.3444C20.7406 40.9955 23.3441 42.1168 24.1383 43.1705C24.9326 44.2243 25.9564 44.487 26.4321 43.1179C26.9079 41.7487 25.5256 40.2361 25.5256 40.2361C25.5256 40.2361 27.8589 42.3829 28.3649 41.0159C28.8708 39.649 28.4824 37.9955 28.3166 37.5739C28.1509 37.1524 28.0219 35.9658 28.5876 35.8073C29.1532 35.6487 28.2325 33.3241 27.0983 33.6478C25.964 33.9714 -12.3967 32.4178 -12.3967 32.4178Z" fill="#86B240"/>
<path d="M-10.4646 34.5203C-10.4646 34.5203 16.3597 43.9161 17.5097 47.1229C18.6597 50.3297 19.944 46.0427 21.1025 43.5854C22.261 41.1281 26.014 35.9344 25.3881 34.3765C24.7621 32.8185 0.957317 29.6854 0.957317 29.6854L-10.4646 34.5203Z" fill="#FEEA59"/>
<path d="M25.1291 32.2783C25.1291 32.2783 -2.80555 38.6432 -4.38489 41.7008C-5.96424 44.7583 -6.6493 40.3575 -7.45112 37.7926C-8.25293 35.2276 -11.2494 29.6599 -10.4096 28.1845C-9.56981 26.709 14.4658 26.2061 14.4658 26.2061L25.1291 32.2783Z" fill="#FEEA59"/>
<path d="M-2.08453 34.8254C-3.80041 34.7515 -11.0602 32.9644 -11.7417 33.3729C-12.4232 33.7814 -13.0124 34.8761 -11.3363 36.1553C-9.48448 37.5613 -0.101105 39.9488 0.743111 39.1043C1.58733 38.2598 3.50043 35.0775 -2.08453 34.8254Z" fill="#E56627"/>
<path d="M11.5999 35.373C9.95881 35.6493 2.80314 35.3895 2.20398 35.9279C1.60482 36.4662 1.21225 37.661 2.98823 38.5679C4.94875 39.5655 14.2098 39.9798 14.8841 38.9825C15.5584 37.9852 16.9446 34.4747 11.5999 35.373Z" fill="#E56627"/>
<path d="M23.2095 34.9558C21.9796 35.3992 16.4181 35.9134 16.0333 36.4962C15.6485 37.079 15.5153 38.294 17.0185 38.9869C18.6759 39.7522 25.886 39.1686 26.2615 38.1233C26.637 37.078 27.2119 33.5047 23.2095 34.9558Z" fill="#E56627"/>
<path d="M28.0096 32.4936C27.6366 37.7657 18.1242 38.4734 6.7997 37.845C-4.52485 37.2167 -13.376 35.497 -13.003 30.225C-12.9878 30.0159 -12.957 29.8082 -12.9108 29.6036C-12.5757 34.4048 -3.98763 36.0137 6.89055 36.6153C17.7687 37.2169 26.9711 36.5748 28.0113 31.8689C28.0239 32.0766 28.0234 32.2853 28.0096 32.4936V32.4936Z" fill="#AA7833"/>
<path d="M27.739 31.7782C27.7206 31.853 27.7022 31.9279 27.6778 32.0028C27.1431 26.7715 18.6833 19.6287 7.98413 18.9041C-2.71503 18.1794 -11.7969 24.1285 -13.1242 29.2322C-13.1342 29.1595 -13.1399 29.0861 -13.1414 29.0125C-12.0521 23.8558 -2.85183 17.6937 8.02811 18.4306C18.9081 19.1675 27.4605 26.5251 27.739 31.7782Z" fill="#D1A065"/>
<path d="M28.0226 32.1186C26.6976 36.6202 17.4036 37.7266 6.70448 37.0019C-3.99468 36.2772 -13.008 34.5371 -13.1241 29.2322C-11.7969 24.1285 -2.70593 18.1792 7.99323 18.9038C18.6924 19.6285 27.4878 26.884 28.0226 32.1186Z" fill="#BE8B40"/>
<path d="M0.167696 26.2489C0.618966 25.7789 0.843267 25.2408 0.668685 25.0472C0.494104 24.8535 -0.0132486 25.0775 -0.464519 25.5476C-0.91579 26.0176 -1.14009 26.5557 -0.965509 26.7493C-0.790927 26.943 -0.283575 26.7189 0.167696 26.2489Z" fill="#CCA36C"/>
<path d="M3.34685 22.0192C3.76704 21.6835 4.00441 21.26 3.87704 21.0733C3.74966 20.8866 3.30577 21.0074 2.88558 21.3431C2.46539 21.6788 2.22802 22.1023 2.35539 22.289C2.48277 22.4757 2.92666 22.355 3.34685 22.0192Z" fill="#CCA36C"/>
<path d="M6.49334 28.3419C6.75966 27.6992 6.79464 27.0956 6.57147 26.9936C6.34831 26.8917 5.95152 27.3301 5.6852 27.9728C5.41889 28.6155 5.38391 29.2191 5.60707 29.3211C5.83023 29.423 6.22703 28.9846 6.49334 28.3419Z" fill="#CCA36C"/>
<path d="M14.7585 22.3852C14.8582 22.1664 14.5737 21.8044 14.1232 21.5768C13.6726 21.3492 13.2265 21.3421 13.1269 21.561C13.0272 21.7798 13.3117 22.1418 13.7622 22.3694C14.2128 22.597 14.6588 22.6041 14.7585 22.3852Z" fill="#CCA36C"/>
<path d="M11.9373 24.0494C12.1009 23.8929 11.9559 23.4295 11.6136 23.0143C11.2713 22.5991 10.8613 22.3894 10.6977 22.5458C10.5342 22.7023 10.6791 23.1657 11.0214 23.5809C11.3637 23.9961 11.7738 24.2058 11.9373 24.0494Z" fill="#CCA36C"/>
<path d="M6.92746 22.1965C7.32926 21.8298 7.54329 21.3902 7.40552 21.2146C7.26775 21.0391 6.83035 21.194 6.42856 21.5607C6.02677 21.9274 5.81273 22.3669 5.9505 22.5425C6.08827 22.7181 6.52567 22.5632 6.92746 22.1965Z" fill="#CCA36C"/>
<path d="M13.2578 28.5541C13.4515 28.3687 13.2799 27.8197 12.8743 27.3279C12.4688 26.836 11.983 26.5875 11.7893 26.7728C11.5955 26.9582 11.7672 27.5071 12.1728 27.999C12.5783 28.4909 13.0641 28.7394 13.2578 28.5541Z" fill="#CCA36C"/>
<path d="M19.2421 31.7152C19.4358 31.5299 19.2641 30.9809 18.8586 30.489C18.453 29.9971 17.9672 29.7486 17.7735 29.934C17.5798 30.1193 17.7515 30.6683 18.157 31.1602C18.5625 31.652 19.0484 31.9005 19.2421 31.7152Z" fill="#CCA36C"/>
<path d="M9.07379 33.8647C9.31365 33.8295 9.44872 33.2352 9.37548 32.5373C9.30224 31.8394 9.04843 31.3021 8.80857 31.3374C8.56871 31.3726 8.43364 31.9669 8.50688 32.6648C8.58011 33.3627 8.83393 33.8999 9.07379 33.8647Z" fill="#CCA36C"/>
<path d="M0.051982 31.6046C0.492299 31.1155 0.702514 30.5668 0.52151 30.3792C0.340506 30.1915 -0.163175 30.4359 -0.603492 30.9251C-1.04381 31.4143 -1.25402 31.9629 -1.07302 32.1506C-0.892016 32.3382 -0.388335 32.0938 0.051982 31.6046Z" fill="#CCA36C"/>
<path d="M23.6573 28.4034C23.8431 28.2063 23.6474 27.6695 23.2201 27.2044C22.7927 26.7393 22.2957 26.522 22.1099 26.7191C21.9241 26.9162 22.1198 27.453 22.5472 27.9181C22.9745 28.3832 23.4715 28.6004 23.6573 28.4034Z" fill="#CCA36C"/>
<path d="M18.7648 26.4751C18.9506 26.278 18.7548 25.7413 18.3275 25.2762C17.9002 24.8111 17.4031 24.5938 17.2173 24.7909C17.0315 24.9879 17.2273 25.5247 17.6546 25.9898C18.0819 26.4549 18.5789 26.6722 18.7648 26.4751Z" fill="#CCA36C"/>
</svg>
