<svg width="76" height="76" viewBox="0 0 76 76" fill="none" xmlns="http://www.w3.org/2000/svg">
<path d="M57.0003 30.4424C57.0003 36.856 55.5521 54.4668 36.531 54.4668C18.7259 54.4668 15.6225 36.8053 15.6225 30.4424C15.6173 30.0006 15.6727 29.5602 15.7872 29.1335C16.1503 27.7782 17.1341 26.9886 18.6076 26.5537C19.9999 26.2046 21.4328 26.0441 22.8679 26.0766C19.4225 27.4826 17.2523 29.4164 17.2185 31.5613C19.1185 35.1164 26.9297 37.7764 36.3114 37.7764C47.0654 37.7764 55.7843 34.272 55.8477 29.9357C55.0539 28.4537 53.2299 27.1322 50.6965 26.0851C51.8171 26.106 52.9312 26.2605 54.0152 26.5453C55.911 27.1111 57.0003 28.2553 57.0003 30.4424Z" fill="#E9E9E9"/>
<path d="M36.3832 21.5334C25.5954 21.5334 16.7372 24.869 15.7872 29.1334C15.7278 29.3838 15.698 29.6403 15.6985 29.8977C15.6985 31.2277 16.4669 32.4817 17.8307 33.5963C21.2085 36.3535 28.2512 38.2408 36.3832 38.2408C45.7776 38.2408 53.6943 35.7074 56.2276 32.2494C56.6009 31.7595 56.8644 31.1951 57.0003 30.5943C57.0492 30.3625 57.0733 30.1261 57.072 29.8892C57.072 25.2743 47.8085 21.5334 36.3832 21.5334ZM36.3114 37.7763C26.9465 37.7763 19.1185 35.1163 17.2185 31.5612C17.2523 29.4163 19.4014 27.4826 22.8678 26.0723C26.406 24.6283 31.3123 23.7332 36.7547 23.7332C42.1972 23.7332 47.1456 24.6326 50.688 26.0892C53.2214 27.1363 55.0454 28.4579 55.8392 29.9399C55.7843 34.2719 47.0654 37.7763 36.3114 37.7763Z" fill="#E0E0E0"/>
<path d="M55.8477 29.8891V29.9356C55.0539 28.4536 53.2299 27.132 50.6966 26.0849C47.1457 24.6282 42.2226 23.7289 36.7548 23.7289C31.287 23.7289 26.4061 24.624 22.8679 26.068C19.4226 27.4825 17.2524 29.4162 17.2186 31.5611C16.9373 31.0429 16.7921 30.4618 16.7964 29.8722C16.7964 28.6731 17.455 27.5416 18.6288 26.5282C21.7279 23.8598 28.4792 21.9978 36.3115 21.9978C44.1437 21.9978 50.895 23.8598 54.0152 26.5451C55.189 27.5585 55.8477 28.7111 55.8477 29.8891Z" fill="#CECECE"/>
<path d="M55.8477 29.9356C55.7844 34.2718 47.0655 37.7763 36.3115 37.7763C26.9466 37.7763 19.1186 35.1163 17.2186 31.5612C17.2523 29.4163 19.4015 27.4825 22.8679 26.0723C26.4061 24.6283 31.3123 23.7332 36.7548 23.7332C42.1972 23.7332 47.1457 24.6325 50.6881 26.0892C53.2299 27.132 55.0539 28.4536 55.8477 29.9356Z" fill="#68270E"/>
<path d="M64.4271 37.9114C64.178 42.6825 54.9103 46.9596 53.4747 46.8878C49.5354 46.6894 61.9191 42.5685 62.1767 37.8016C62.4343 33.0347 55.4212 35.8383 55.5225 33.7314C55.6745 30.6661 64.6636 33.1445 64.4271 37.9114Z" fill="#F4F4F4"/>
<path d="M37.3291 28.6311C37.3291 28.6311 42.4717 26.368 45.3513 28.9351C48.7671 32.0173 35.0448 33.2291 34.2975 35.3191C34.2975 35.3191 33.6388 32.7309 30.6706 30.4551C28.1795 28.5425 29.2477 27.3265 30.8733 26.6551C33.7782 25.4053 37.8695 26.8958 37.3291 28.6311Z" fill="white"/>
</svg>
