<svg width="76" height="76" viewBox="0 0 76 76" fill="none" xmlns="http://www.w3.org/2000/svg">
<path d="M28.2229 23.8396C19.6448 23.8606 12.5659 27.755 11.4535 32.7848C11.4782 32.8684 11.5038 32.9548 11.5293 33.0411C12.8526 37.9387 19.8533 41.6612 28.2805 41.6423C36.7077 41.6234 43.6885 37.858 44.9867 32.955C45.0099 32.8694 45.0322 32.781 45.0498 32.697C43.8982 27.673 36.8001 23.8157 28.2229 23.8396ZM34.5754 31.2006C34.5768 31.3197 34.5684 31.4387 34.5503 31.5564C34.2613 33.5198 31.5519 35.0627 28.2529 35.0714C24.9538 35.0802 22.2326 33.549 21.9351 31.5893C21.9178 31.4716 21.909 31.3527 21.9087 31.2336C21.907 31.1454 21.9112 31.0571 21.9215 30.9694C21.9108 30.8823 21.9062 30.7946 21.9075 30.7069C21.9091 30.3408 21.9928 29.9796 22.1525 29.6501V29.6501C22.9048 28.0344 25.3436 26.8472 28.2401 26.8393C31.1365 26.8314 33.5805 28.0083 34.3413 29.619C34.4956 29.9494 34.5742 30.3101 34.5715 30.6748C34.5723 30.763 34.568 30.8513 34.5587 30.939C34.5699 31.0258 34.5755 31.1132 34.5754 31.2006V31.2006Z" fill="#DDA94E"/>
<path d="M34.5753 31.2005C34.5766 31.3196 34.5682 31.4385 34.5502 31.5562C34.2611 33.5197 31.5518 35.0625 28.2527 35.0713C24.9537 35.08 22.2324 33.5489 21.935 31.5892C21.9177 31.4714 21.9089 31.3525 21.9086 31.2335C21.9069 31.1452 21.9111 31.0569 21.9213 30.9692C21.9286 30.9994 21.9374 31.0291 21.9477 31.0584C22.2452 33.0181 24.9628 34.5472 28.2655 34.5404C31.5682 34.5337 34.2739 32.9889 34.563 31.0254C34.5687 30.9935 34.5716 30.9623 34.5753 30.9339C34.5811 31.0227 34.5811 31.1117 34.5753 31.2005V31.2005Z" fill="#CB9A4B"/>
<path d="M34.5715 30.6747C34.5723 30.7629 34.568 30.8512 34.5587 30.939C34.5231 30.6655 34.4444 30.3995 34.3257 30.1506V30.1506C33.5649 28.5398 31.121 27.3629 28.2246 27.3708C25.3281 27.3787 22.8893 28.566 22.137 30.1816C22.0198 30.431 21.9442 30.6979 21.9131 30.9718C21.9025 30.8847 21.8978 30.797 21.8991 30.7093C21.9029 30.3417 21.9895 29.9796 22.1525 29.65V29.65C22.9048 28.0343 25.3436 26.8471 28.2401 26.8392C31.1365 26.8313 33.5805 28.0082 34.3412 29.6189C34.4955 29.9494 34.5742 30.31 34.5715 30.6747V30.6747Z" fill="#CB9A4B"/>
<path d="M45.1098 32.3461C45.0909 32.4668 45.0676 32.5827 45.0387 32.7003C43.8983 27.673 36.8002 23.8157 28.2229 23.8395C19.6457 23.8634 12.566 27.755 11.4536 32.7848C11.4199 32.6706 11.4 32.5523 11.3802 32.4339C12.2401 27.2364 19.4475 23.1617 28.2222 23.14C36.997 23.1184 44.226 27.152 45.1098 32.3461Z" fill="#EAB259"/>
<path d="M45.1973 33.4015C45.2146 39.0971 37.6472 43.7265 28.2664 43.7576C18.8856 43.7888 11.3031 39.1841 11.2978 33.4881C11.2961 33.135 11.3236 32.7825 11.38 32.4339C12.263 37.6252 19.4944 41.6672 28.2692 41.6456C37.0439 41.6239 44.2505 37.5464 45.1095 32.3461C45.168 32.6949 45.1973 33.0479 45.1973 33.4015V33.4015Z" fill="#CB9A4B"/>
<path d="M43.726 31.1283C43.7723 31.11 43.8232 31.1066 43.8716 31.1186C44.5368 31.2582 44.8141 31.1612 44.6566 30.823C44.6467 30.7896 44.6203 30.7005 44.5575 30.5494C44.0372 29.1887 41.271 23.2212 28.4985 23.1218C14.4222 23.008 13.4816 27.9628 11.6679 30.1073C11.2601 30.6293 11.0246 31.2652 10.9941 31.927C10.9094 33.106 11.3436 34.3499 12.3226 34.8027C13.8677 35.5213 15.9605 34.0546 16.2799 35.2173C16.3147 35.3529 16.3364 35.4915 16.3446 35.6313C16.3765 36.0671 16.3238 36.5855 16.3041 37.1033L16.3091 37.12C16.2775 38.038 16.3664 38.9538 17.28 39.3804C18.8657 40.1234 21.6801 37.9316 22.5045 38.0666C23.3289 38.2016 24.7131 41.5424 26.3044 41.8536C27.8958 42.1648 27.7785 38.2526 28.532 37.9118C29.2854 37.571 33.0713 41.3924 34.3172 40.9243C35.5631 40.4561 35.0073 37.0279 35.2788 36.6448C35.5502 36.2617 40.1307 38.6003 40.7446 37.4799C41.3585 36.3595 40.6117 35.2777 42.3261 35.7797C44.0405 36.2817 44.4202 34.0613 44.3086 33.3763C44.2108 32.748 43.3859 31.2894 43.726 31.1283ZM23.5005 29.7937C23.4979 28.6162 25.8086 27.6516 28.6572 27.6457C31.5058 27.6399 33.8188 28.5889 33.8237 29.7537C33.8245 29.8558 33.8073 29.9572 33.773 30.0534C33.805 30.146 33.8224 30.243 33.8247 30.341C33.8246 31.5193 31.5194 32.4823 28.668 32.489C25.8166 32.4957 23.5064 31.5458 23.5015 30.3811C23.5009 30.2804 23.5174 30.1802 23.5502 30.085C23.5172 29.9914 23.5004 29.8929 23.5005 29.7937V29.7937Z" fill="#F38EBB"/>
<path d="M33.8123 29.8995C33.8035 29.9563 33.7896 30.0121 33.7707 30.0663C33.4233 29.024 31.2649 28.2291 28.6614 28.2444C26.0579 28.2596 23.8947 29.0473 23.5543 30.099C23.5328 30.047 23.5168 29.9928 23.5066 29.9375C23.6536 28.8157 25.8996 27.9186 28.6619 27.908C31.4243 27.8973 33.6569 28.7793 33.8123 29.8995Z" fill="#E080AD"/>
<path d="M33.8215 29.7665C33.823 29.811 33.8199 29.8556 33.8123 29.8995C33.6569 28.7792 31.3999 27.8863 28.6568 27.9004C25.9136 27.9145 23.6596 28.8048 23.5014 29.9299C23.4931 29.8861 23.4891 29.8417 23.4894 29.7971C23.4867 28.6196 25.7975 27.655 28.6461 27.6491C31.4947 27.6433 33.8188 28.589 33.8215 29.7665Z" fill="#F38EBB"/>
<path d="M20.1125 29.5229C20.034 29.523 19.9575 29.4978 19.8944 29.451C19.6335 29.2708 19.3289 29.1641 19.0126 29.1422V29.1422C18.7138 29.1762 18.4194 29.2419 18.1345 29.3381C18.0875 29.358 18.0368 29.3678 17.9857 29.3671C17.9347 29.3664 17.8843 29.355 17.8378 29.3338C17.7914 29.3126 17.7498 29.282 17.7158 29.2439C17.6818 29.2058 17.6561 29.1611 17.6403 29.1125C17.6245 29.064 17.6189 29.0127 17.6239 28.9618C17.629 28.911 17.6445 28.8618 17.6695 28.8173C17.6946 28.7728 17.7286 28.734 17.7694 28.7033C17.8102 28.6726 17.857 28.6508 17.9067 28.6391C18.2719 28.5205 18.6491 28.4426 19.0314 28.4066C19.5025 28.4302 19.9569 28.5881 20.3412 28.8616C20.4074 28.9059 20.4573 28.9706 20.4834 29.0458C20.5095 29.1211 20.5103 29.2028 20.4858 29.2786C20.4612 29.3543 20.4127 29.42 20.3474 29.4657C20.2821 29.5114 20.2038 29.5345 20.1242 29.5316L20.1125 29.5229Z" fill="#8E542D"/>
<path d="M19.1773 27.67C19.0981 27.6701 19.0211 27.6438 18.9584 27.5954C18.6965 27.4162 18.3912 27.3108 18.0746 27.2902V27.2902C17.7758 27.3242 17.4814 27.3898 17.1965 27.486C17.1495 27.5059 17.0988 27.5158 17.0478 27.515C16.9967 27.5143 16.9463 27.503 16.8999 27.4818C16.8534 27.4606 16.8119 27.4299 16.7779 27.3919C16.7439 27.3538 16.7181 27.309 16.7023 27.2605C16.6865 27.2119 16.6809 27.1606 16.6859 27.1098C16.691 27.059 16.7065 27.0098 16.7316 26.9653C16.7566 26.9207 16.7906 26.8819 16.8314 26.8513C16.8722 26.8206 16.919 26.7987 16.9687 26.787C17.334 26.6685 17.7111 26.5905 18.0935 26.5546C18.5637 26.579 19.0174 26.7357 19.4024 27.0068C19.4665 27.0522 19.5145 27.1169 19.5392 27.1915C19.564 27.2661 19.5643 27.3467 19.5401 27.4215C19.5159 27.4963 19.4684 27.5614 19.4046 27.6073C19.3408 27.6532 19.264 27.6775 19.1854 27.6767L19.1773 27.67Z" fill="#E76924"/>
<path d="M36.7281 28.1837C36.6489 28.1832 36.5718 28.1584 36.5072 28.1127C36.2468 27.9314 35.9419 27.8246 35.6253 27.8038C35.3256 27.838 35.0303 27.9039 34.7445 28.0005C34.6544 28.0212 34.5599 28.0073 34.4796 27.9616C34.3993 27.916 34.339 27.8418 34.3108 27.7539C34.2825 27.6659 34.2882 27.5706 34.3269 27.4867C34.3655 27.4027 34.4342 27.3364 34.5194 27.3007C34.8847 27.1821 35.2619 27.1042 35.6442 27.0682C36.115 27.093 36.5692 27.2507 36.9539 27.5232C37.0201 27.5675 37.07 27.6322 37.0961 27.7075C37.1222 27.7827 37.1231 27.8644 37.0985 27.9402C37.074 28.016 37.0254 28.0817 36.9602 28.1273C36.8949 28.173 36.8165 28.1961 36.7369 28.1932L36.7281 28.1837Z" fill="#5B9741"/>
<path d="M37.6154 35.6242C37.5474 35.5841 37.4936 35.5237 37.4614 35.4516C37.3237 35.1653 37.1115 34.9215 36.8469 34.7457V34.7457C36.5712 34.6256 36.2829 34.5371 35.9874 34.4818C35.9369 34.4753 35.8884 34.4584 35.8448 34.4322C35.8012 34.406 35.7635 34.3711 35.734 34.3296C35.7046 34.2882 35.684 34.2411 35.6736 34.1913C35.6632 34.1415 35.6632 34.0901 35.6737 34.0404C35.6841 33.9906 35.7047 33.9435 35.7342 33.9021C35.7636 33.8606 35.8014 33.8257 35.845 33.7996C35.8886 33.7734 35.9371 33.7566 35.9876 33.75C36.038 33.7435 36.0893 33.7475 36.1381 33.7618C36.5138 33.8384 36.8794 33.958 37.2278 34.1182C37.6257 34.371 37.9427 34.7324 38.1415 35.1598C38.1691 35.2304 38.1743 35.3079 38.1563 35.3816C38.1383 35.4554 38.098 35.5218 38.0409 35.5718C37.9838 35.6217 37.9127 35.6529 37.8373 35.661C37.7618 35.6691 37.6857 35.6537 37.6193 35.617L37.6154 35.6242Z" fill="#5B9741"/>
<path d="M25.3651 26.0079C25.326 25.9852 25.2947 25.9511 25.2756 25.9101C25.1977 25.7469 25.077 25.6077 24.9264 25.5075V25.5075C24.7681 25.4364 24.6022 25.3838 24.4318 25.3508C24.4041 25.3453 24.3777 25.3344 24.3543 25.3185C24.331 25.3026 24.3111 25.2821 24.2958 25.2583C24.2806 25.2345 24.2703 25.2078 24.2656 25.18C24.261 25.1521 24.262 25.1235 24.2687 25.0961C24.2734 25.068 24.2839 25.0411 24.2995 25.0173C24.3151 24.9934 24.3354 24.9731 24.3593 24.9575C24.3831 24.9419 24.41 24.9314 24.4381 24.9267C24.4662 24.922 24.495 24.9232 24.5226 24.9302C24.7373 24.9748 24.9464 25.043 25.1461 25.1336C25.3707 25.282 25.5489 25.4908 25.6603 25.7359C25.6787 25.7764 25.6836 25.8217 25.6745 25.8652C25.6654 25.9087 25.6426 25.9482 25.6095 25.9779C25.5764 26.0076 25.5347 26.026 25.4905 26.0304C25.4462 26.0348 25.4018 26.0249 25.3635 26.0023L25.3651 26.0079Z" fill="#E76924"/>
<path d="M23.1298 27.9253C23.0898 27.9038 23.0582 27.8694 23.0403 27.8276C22.9619 27.6637 22.841 27.5237 22.6903 27.4222V27.4222C22.5316 27.3522 22.3657 27.2996 22.1957 27.2654C22.1401 27.2537 22.0914 27.2203 22.0604 27.1727C22.0293 27.1252 22.0183 27.0672 22.0298 27.0116C22.0352 26.9838 22.0462 26.9575 22.0621 26.9341C22.078 26.9107 22.0985 26.8908 22.1223 26.8756C22.1461 26.8603 22.1727 26.8501 22.2006 26.8454C22.2285 26.8407 22.257 26.8418 22.2845 26.8485C22.5004 26.8914 22.7106 26.9594 22.9108 27.0511C23.1374 27.197 23.3183 27.4039 23.4326 27.6481C23.4489 27.6885 23.4525 27.733 23.4426 27.7755C23.4328 27.8179 23.4101 27.8564 23.3776 27.8855C23.3452 27.9146 23.3046 27.933 23.2613 27.9382C23.218 27.9434 23.1741 27.9352 23.1357 27.9145L23.1298 27.9253Z" fill="#E76924"/>
<path d="M22.3621 25.399C22.3176 25.3964 22.2746 25.3819 22.2376 25.357C22.0875 25.2538 21.9126 25.1926 21.7308 25.1797V25.1797C21.5596 25.1983 21.3909 25.236 21.2279 25.292C21.1746 25.3085 21.117 25.3034 21.0675 25.2778C21.018 25.2522 20.9806 25.2081 20.9633 25.1551C20.9548 25.129 20.9515 25.1014 20.9536 25.074C20.9557 25.0466 20.9632 25.0199 20.9757 24.9954C20.9881 24.9709 21.0053 24.9491 21.0262 24.9313C21.0471 24.9134 21.0713 24.8998 21.0974 24.8913C21.3065 24.8219 21.5231 24.7772 21.7426 24.7582C22.0117 24.7737 22.2711 24.8638 22.4919 25.0184C22.5356 25.0518 22.5643 25.101 22.5719 25.1555C22.5795 25.2099 22.5653 25.2652 22.5325 25.3093C22.513 25.3364 22.4875 25.3587 22.4579 25.3743C22.4283 25.3899 22.3955 25.3983 22.3621 25.399V25.399Z" fill="#5B9741"/>
<path d="M30.7536 25.0542C30.7897 25.0269 30.8156 24.9884 30.8272 24.9446C30.8811 24.7718 30.9807 24.6167 31.1156 24.4959V24.4959C31.2614 24.4043 31.4173 24.3298 31.5801 24.2738C31.6059 24.2643 31.6296 24.2497 31.6498 24.231C31.67 24.2122 31.6863 24.1897 31.6978 24.1646C31.7092 24.1396 31.7156 24.1125 31.7165 24.085C31.7175 24.0574 31.713 24.03 31.7034 24.0042C31.684 23.9518 31.6447 23.9091 31.594 23.8855C31.5434 23.8619 31.4855 23.8593 31.4329 23.8781C31.2275 23.9544 31.0312 24.0531 30.8474 24.1723C30.645 24.3502 30.496 24.5809 30.4173 24.8386C30.403 24.8927 30.4106 24.9503 30.4386 24.9988C30.4665 25.0472 30.5125 25.0827 30.5664 25.0974C30.5988 25.106 30.6328 25.1065 30.6654 25.099C30.698 25.0914 30.7283 25.0761 30.7536 25.0542V25.0542Z" fill="#5156A5"/>
<path d="M28.3173 26.465C28.3183 26.4195 28.3354 26.3757 28.3657 26.3417C28.4757 26.1976 28.5465 26.0274 28.5711 25.8478V25.8478C28.5634 25.6765 28.5366 25.5067 28.4911 25.3414C28.4754 25.2882 28.4815 25.2309 28.5079 25.1822C28.5344 25.1335 28.5792 25.0973 28.6324 25.0815C28.6856 25.0658 28.7429 25.0719 28.7916 25.0984C28.8403 25.1249 28.8765 25.1696 28.8922 25.2228C28.9501 25.435 28.9821 25.6533 28.9875 25.8732C28.9595 26.1409 28.8547 26.3949 28.6857 26.6045C28.6497 26.6466 28.5987 26.6729 28.5436 26.6779C28.4885 26.6829 28.4336 26.6661 28.3907 26.6311C28.3664 26.611 28.3472 26.5855 28.3344 26.5567C28.3217 26.5279 28.3158 26.4965 28.3173 26.465V26.465Z" fill="#5156A5"/>
<path d="M27.1381 24.9961C27.0997 24.9725 27.0687 24.9386 27.0486 24.8983C26.9691 24.7358 26.8467 24.5981 26.6947 24.5001V24.5001C26.5352 24.4296 26.3684 24.3774 26.1973 24.3442C26.1427 24.3334 26.0946 24.3014 26.0636 24.2552C26.0326 24.209 26.0212 24.1523 26.032 24.0977C26.0428 24.0431 26.0748 23.995 26.121 23.964C26.1673 23.9331 26.2239 23.9217 26.2785 23.9325C26.4944 23.9739 26.7049 24.0398 26.906 24.1287C27.1339 24.273 27.3172 24.4779 27.4352 24.7204C27.4524 24.7609 27.4565 24.8057 27.4471 24.8486C27.4377 24.8915 27.4151 24.9304 27.3826 24.9599C27.3501 24.9895 27.3092 25.0082 27.2656 25.0136C27.222 25.0189 27.1779 25.0105 27.1392 24.9897L27.1381 24.9961Z" fill="#8E542D"/>
<path d="M33.5311 25.7509C33.5814 25.7295 33.6235 25.6926 33.6515 25.6457C33.7664 25.4575 33.9306 25.3042 34.1263 25.2025V25.2025C34.3265 25.1421 34.5328 25.1045 34.7414 25.0904C34.7749 25.0874 34.8075 25.0779 34.8374 25.0623C34.8672 25.0468 34.8937 25.0255 34.9153 24.9997C34.937 24.9739 34.9533 24.9441 34.9634 24.912C34.9735 24.8798 34.9772 24.8461 34.9743 24.8125C34.9713 24.779 34.9618 24.7464 34.9462 24.7165C34.9307 24.6867 34.9094 24.6602 34.8836 24.6385C34.8578 24.6169 34.828 24.6006 34.7959 24.5905C34.7638 24.5803 34.73 24.5767 34.6964 24.5796C34.4301 24.6021 34.1672 24.6544 33.9126 24.7356C33.6172 24.8788 33.3684 25.1025 33.1946 25.3809C33.1771 25.4098 33.1655 25.4419 33.1606 25.4754C33.1556 25.5088 33.1573 25.5429 33.1656 25.5756C33.1739 25.6084 33.1885 25.6392 33.2088 25.6663C33.229 25.6933 33.2544 25.7161 33.2836 25.7332C33.3201 25.7565 33.3619 25.7702 33.4051 25.7733C33.4483 25.7764 33.4916 25.7687 33.5311 25.7509V25.7509Z" fill="#8E542D"/>
<path d="M22.6817 36.2575C22.7369 36.2012 22.7718 36.128 22.7807 36.0496C22.836 35.7368 22.9732 35.4444 23.1784 35.202V35.202C23.4133 35.0091 23.669 34.8431 23.9409 34.7071C23.9835 34.6845 24.0214 34.6538 24.0521 34.6166C24.0829 34.5795 24.1061 34.5366 24.1203 34.4905C24.1345 34.4444 24.1395 34.3959 24.135 34.3479C24.1305 34.2999 24.1166 34.2532 24.094 34.2105C24.0714 34.1679 24.0407 34.1301 24.0036 34.0993C23.9664 34.0685 23.9235 34.0453 23.8774 34.0311C23.8313 34.0169 23.7828 34.0119 23.7348 34.0164C23.6868 34.0209 23.6401 34.0349 23.5974 34.0574C23.2566 34.2344 22.9371 34.4498 22.6452 34.6993C22.3337 35.0534 22.1294 35.4889 22.056 35.9548C22.0464 36.0314 22.0609 36.1091 22.0977 36.1769C22.1346 36.2448 22.1918 36.2994 22.2612 36.3331C22.3307 36.3667 22.409 36.3777 22.4851 36.3645C22.5611 36.3513 22.6312 36.3146 22.6853 36.2595L22.6817 36.2575Z" fill="#8E542D"/>
<path d="M13.9838 32.1218C14.0591 32.0984 14.1249 32.0513 14.1713 31.9876C14.3627 31.7355 14.6192 31.5404 14.9132 31.423V31.423C15.2046 31.3653 15.5012 31.3385 15.7983 31.3432C15.8464 31.3433 15.8941 31.3339 15.9387 31.3155C15.9832 31.2972 16.0237 31.2702 16.0578 31.2362C16.0919 31.2022 16.119 31.1619 16.1375 31.1174C16.156 31.073 16.1655 31.0253 16.1656 30.9771C16.1657 30.929 16.1564 30.8813 16.138 30.8367C16.1197 30.7922 16.0927 30.7517 16.0587 30.7176C16.0247 30.6835 15.9843 30.6564 15.9399 30.6379C15.8954 30.6194 15.8478 30.6098 15.7996 30.6098C15.4155 30.6069 15.0323 30.648 14.6575 30.7322C14.2174 30.9005 13.8335 31.1892 13.5498 31.5655C13.4931 31.645 13.4702 31.7437 13.4862 31.8401C13.5022 31.9364 13.5557 32.0225 13.6351 32.0794C13.6849 32.1154 13.743 32.1382 13.8039 32.1456C13.8649 32.153 13.9268 32.1448 13.9838 32.1218V32.1218Z" fill="#5B9741"/>
<path d="M40.6207 29.7228C40.5412 29.725 40.4632 29.7 40.3998 29.6518C40.1389 29.4715 39.8343 29.3649 39.518 29.3429V29.3429C39.2187 29.3738 38.924 29.4396 38.6399 29.5388C38.5929 29.5587 38.5422 29.5686 38.4911 29.5678C38.4401 29.5671 38.3897 29.5558 38.3433 29.5346C38.2968 29.5134 38.2553 29.4827 38.2212 29.4447C38.1872 29.4066 38.1615 29.3618 38.1457 29.3133C38.1299 29.2647 38.1243 29.2134 38.1293 29.1626C38.1344 29.1118 38.1499 29.0625 38.175 29.018C38.2 28.9735 38.234 28.9347 38.2748 28.904C38.3156 28.8734 38.3624 28.8515 38.4121 28.8398C38.7769 28.7196 39.1543 28.6416 39.5369 28.6074C40.0078 28.6318 40.4623 28.7882 40.8486 29.0587C40.8873 29.0876 40.9199 29.1238 40.9446 29.1654C40.9693 29.2069 40.9855 29.2529 40.9924 29.3007C40.9992 29.3485 40.9964 29.3972 40.9843 29.444C40.9722 29.4908 40.951 29.5347 40.9218 29.5732C40.8876 29.6208 40.8423 29.6592 40.7898 29.6853C40.7373 29.7114 40.6793 29.7242 40.6207 29.7228V29.7228Z" fill="#5B9741"/>
<path d="M20.2652 34.179C20.1963 34.219 20.1166 34.2362 20.0374 34.2281C19.7214 34.2067 19.4055 34.2718 19.1237 34.4164V34.4164C18.8834 34.597 18.6642 34.804 18.4701 35.0336C18.4399 35.0749 18.4013 35.1094 18.357 35.135C18.3127 35.1605 18.2635 35.1766 18.2127 35.1821C18.1618 35.1877 18.1103 35.1826 18.0615 35.1672C18.0127 35.1518 17.9677 35.1264 17.9293 35.0926C17.8908 35.0588 17.8598 35.0174 17.8382 34.971C17.8166 34.9246 17.8049 34.8743 17.8038 34.8231C17.8028 34.772 17.8124 34.7211 17.832 34.6739C17.8516 34.6266 17.8809 34.584 17.9179 34.5486C18.1704 34.2599 18.4543 34.0002 18.7644 33.7744C19.1822 33.5557 19.653 33.4585 20.1233 33.494C20.2 33.5024 20.2721 33.5347 20.3295 33.5862C20.3869 33.6378 20.4267 33.706 20.4432 33.7814C20.4598 33.8567 20.4524 33.9353 20.4219 34.0062C20.3915 34.0771 20.3396 34.1367 20.2735 34.1765L20.2652 34.179Z" fill="#5B9741"/>
<path d="M37.2412 26.2509C37.1854 26.2515 37.131 26.2335 37.0867 26.1996C36.9033 26.075 36.6902 26.0011 36.469 25.9854V25.9854C36.2603 26.0098 36.0547 26.0563 35.8558 26.1242C35.8228 26.1389 35.787 26.1465 35.7508 26.1464C35.7146 26.1464 35.6788 26.1388 35.6458 26.1241C35.6127 26.1094 35.5831 26.0879 35.5589 26.0611C35.5347 26.0342 35.5164 26.0025 35.5051 25.9682C35.4939 25.9338 35.49 25.8974 35.4937 25.8614C35.4974 25.8254 35.5087 25.7906 35.5267 25.7592C35.5447 25.7279 35.569 25.7006 35.5982 25.6793C35.6274 25.6579 35.6608 25.6429 35.6962 25.6352C35.9518 25.5513 36.216 25.4966 36.4839 25.4721C36.8133 25.4897 37.1312 25.5993 37.4014 25.7886C37.4558 25.8297 37.4917 25.8906 37.5015 25.958C37.5112 26.0255 37.4939 26.0941 37.4533 26.1488C37.4287 26.1816 37.3966 26.208 37.3597 26.2257C37.3228 26.2435 37.2821 26.2521 37.2412 26.2509V26.2509Z" fill="#E76924"/>
<path d="M39.9633 27.3243C39.9077 27.3237 39.8537 27.3058 39.8088 27.273C39.626 27.1473 39.4126 27.0732 39.1912 27.0588V27.0588C38.9822 27.0821 38.7764 27.1277 38.5771 27.1948C38.545 27.2055 38.5111 27.2097 38.4774 27.2072C38.4436 27.2047 38.4107 27.1955 38.3806 27.1802C38.3504 27.1649 38.3236 27.1438 38.3017 27.118C38.2797 27.0922 38.2631 27.0624 38.2528 27.0302C38.232 26.9653 38.2376 26.8949 38.2685 26.8342C38.2993 26.7734 38.3528 26.7273 38.4175 26.7059C38.6731 26.6219 38.9373 26.5672 39.2053 26.5427C39.534 26.56 39.8511 26.67 40.1199 26.86C40.1473 26.8799 40.1704 26.905 40.188 26.9339C40.2056 26.9628 40.2172 26.9949 40.2223 27.0283C40.2274 27.0617 40.2258 27.0958 40.2176 27.1286C40.2094 27.1615 40.1948 27.1923 40.1746 27.2194C40.1503 27.2524 40.1184 27.2791 40.0816 27.2974C40.0449 27.3156 40.0043 27.3248 39.9633 27.3243V27.3243Z" fill="#5156A5"/>
<path d="M19.5767 32.5164C19.6515 32.4911 19.7167 32.4433 19.7634 32.3795C19.9554 32.1283 20.2121 31.9341 20.506 31.8177V31.8177C20.7972 31.7586 21.0941 31.7318 21.3911 31.7379C21.4886 31.7372 21.5818 31.6981 21.6505 31.629C21.7191 31.5599 21.7577 31.4665 21.7577 31.369C21.7579 31.3208 21.7486 31.2731 21.7302 31.2285C21.7119 31.184 21.685 31.1435 21.651 31.1093C21.617 31.0752 21.5766 31.0481 21.5321 31.0296C21.4876 31.0112 21.4399 31.0016 21.3917 31.0017C21.0077 31 20.6249 31.0421 20.2504 31.1269C19.8088 31.2925 19.4242 31.5817 19.1427 31.9601C19.0969 32.0228 19.0723 32.0985 19.0723 32.1761C19.0723 32.2537 19.0971 32.3293 19.1429 32.392C19.1887 32.4546 19.2533 32.5011 19.3272 32.5247C19.4012 32.5482 19.4808 32.5476 19.5544 32.523L19.5767 32.5164Z" fill="#5156A5"/>
<path d="M39.947 33.039C40.0254 33.0414 40.1026 33.0186 40.1671 32.9739C40.4274 32.7912 40.7327 32.6831 41.0501 32.6615V32.6615C41.3495 32.6939 41.6446 32.758 41.9305 32.8526C41.9764 32.8673 42.0247 32.8728 42.0727 32.8688C42.1208 32.8647 42.1675 32.8513 42.2104 32.8292C42.2532 32.8072 42.2913 32.7768 42.3224 32.7401C42.3535 32.7033 42.3771 32.6607 42.3918 32.6148C42.4065 32.5689 42.412 32.5205 42.408 32.4725C42.4039 32.4245 42.3905 32.3777 42.3684 32.3349C42.3463 32.292 42.3161 32.254 42.2793 32.2228C42.2425 32.1917 42.1999 32.1682 42.154 32.1535C41.7889 32.0353 41.4117 31.9588 41.0294 31.9255C40.5588 31.9538 40.1055 32.113 39.7204 32.385C39.6817 32.414 39.6491 32.4503 39.6245 32.4919C39.5999 32.5336 39.5838 32.5796 39.5771 32.6275C39.5704 32.6754 39.5733 32.7241 39.5855 32.7709C39.5978 32.8177 39.6192 32.8616 39.6485 32.9C39.6834 32.9454 39.7288 32.9817 39.7808 33.0059C39.8328 33.0301 39.8897 33.0414 39.947 33.039V33.039Z" fill="#8E542D"/>
<path d="M32.6857 36.5933C32.6301 36.5364 32.5945 36.4629 32.5845 36.3839C32.528 36.0718 32.3896 35.7803 32.1834 35.5392V35.5392C31.9524 35.3482 31.7006 35.1839 31.4327 35.0493C31.3543 34.9999 31.2973 34.9228 31.2731 34.8333C31.2489 34.7438 31.2593 34.6484 31.3022 34.5662C31.3452 34.4841 31.4174 34.4211 31.5047 34.3898C31.592 34.3585 31.6878 34.3612 31.7732 34.3974C32.1119 34.5708 32.4303 34.7815 32.7222 35.0256C33.0367 35.3778 33.244 35.8126 33.3197 36.2787C33.3298 36.3551 33.3157 36.4328 33.2794 36.5008C33.2431 36.5688 33.1864 36.6237 33.1173 36.6578C33.0482 36.692 32.9701 36.7036 32.8941 36.6911C32.818 36.6786 32.7478 36.6425 32.6933 36.588L32.6857 36.5933Z" fill="#8E542D"/>
<path d="M36.731 32.0264C36.6546 32.0042 36.5881 31.9565 36.5426 31.8913C36.3469 31.6412 36.0879 31.448 35.7926 31.3315V31.3315C35.4979 31.2727 35.1976 31.2467 34.8972 31.2538C34.8477 31.2559 34.7983 31.2481 34.7519 31.2307C34.7055 31.2133 34.6631 31.1868 34.6272 31.1527C34.5913 31.1185 34.5626 31.0775 34.5429 31.0321C34.5232 30.9866 34.5128 30.9377 34.5124 30.8882C34.512 30.8386 34.5216 30.7895 34.5406 30.7438C34.5596 30.698 34.5876 30.6566 34.623 30.6219C34.6583 30.5872 34.7003 30.56 34.7464 30.5418C34.7925 30.5237 34.8418 30.5151 34.8913 30.5164C35.2751 30.5116 35.6581 30.552 36.0324 30.6366C36.4742 30.8023 36.8603 31.0893 37.1464 31.4644C37.1747 31.5036 37.195 31.548 37.2061 31.595C37.2171 31.642 37.2187 31.6908 37.2109 31.7384C37.203 31.7861 37.1858 31.8317 37.1602 31.8727C37.1346 31.9137 37.1011 31.9492 37.0617 31.9772C37.0148 32.0117 36.9601 32.0343 36.9025 32.0429C36.8448 32.0515 36.786 32.0458 36.731 32.0264V32.0264Z" fill="#E76924"/>
<path d="M29.0259 36.0878C28.9555 36.0502 28.9002 35.9896 28.8691 35.916C28.7323 35.6302 28.5201 35.3872 28.2554 35.2129V35.2129C27.9785 35.0939 27.6893 35.0057 27.3931 34.9498C27.3039 34.9238 27.2279 34.8651 27.1801 34.7854C27.1323 34.7058 27.1163 34.611 27.1353 34.5201C27.1544 34.4292 27.207 34.3488 27.2827 34.2949C27.3585 34.2411 27.4517 34.2179 27.5438 34.2298C27.9199 34.3056 28.2862 34.424 28.6355 34.5826C29.0314 34.839 29.3481 35.2007 29.55 35.627C29.5776 35.6976 29.5829 35.7751 29.5649 35.8488C29.5469 35.9226 29.5066 35.989 29.4495 36.039C29.3924 36.089 29.3213 36.1201 29.2458 36.1282C29.1703 36.1363 29.0942 36.1209 29.0278 36.0842L29.0259 36.0878Z" fill="#5156A5"/>
<path d="M48.1841 33.0125C39.6068 33.0364 32.5271 36.928 31.4119 41.9587C31.4374 42.045 31.463 42.1314 31.4885 42.2177C32.8109 47.1126 39.8124 50.8378 48.2388 50.8161C56.6653 50.7944 63.6476 47.0346 64.9459 42.1316C64.9683 42.0432 64.9914 41.9576 65.011 41.87C63.8635 36.8599 56.7646 32.9998 48.1841 33.0125ZM54.5374 40.3764C54.536 40.4954 54.5276 40.6142 54.5123 40.7322C54.2224 42.6928 51.5139 44.2385 48.2112 44.2452C44.9086 44.252 42.1945 42.7248 41.8934 40.7632C41.8761 40.6463 41.8676 40.5284 41.8679 40.4103C41.8675 40.3217 41.8727 40.2331 41.8834 40.1452C41.8705 40.0586 41.8649 39.9711 41.8667 39.8836C41.8662 39.5175 41.9477 39.156 42.1053 38.8256V38.8256C42.8409 37.2148 45.2956 36.0198 48.1893 36.0128C51.083 36.0057 53.5325 37.181 54.2913 38.7953C54.4492 39.1248 54.5319 39.4852 54.5334 39.8506C54.5353 39.9379 54.5308 40.0253 54.5199 40.112C54.5314 40.2025 54.5381 40.2936 54.5399 40.3848L54.5374 40.3764Z" fill="#DDA94E"/>
<path d="M54.5399 40.3848C54.5385 40.5038 54.5301 40.6226 54.5148 40.7406C54.2249 42.7012 51.5164 44.2469 48.2137 44.2536C44.911 44.2604 42.197 42.7332 41.8959 40.7716C41.8786 40.6547 41.8701 40.5368 41.8704 40.4187C41.87 40.3301 41.8752 40.2415 41.8859 40.1536L41.8947 40.2449C42.1958 42.2065 44.9107 43.7365 48.2125 43.7269C51.5144 43.7174 54.2237 42.1745 54.5136 40.2139L54.5223 40.1204C54.5327 40.2082 54.5386 40.2965 54.5399 40.3848V40.3848Z" fill="#CB9A4B"/>
<path d="M54.5499 39.8549C54.5519 39.9423 54.5473 40.0297 54.5363 40.1164C54.5024 39.8426 54.4237 39.5763 54.3033 39.328V39.328C53.5445 37.7137 51.0978 36.5376 48.2014 36.5455C45.305 36.5533 42.8661 37.7406 42.1174 39.3583C41.9986 39.608 41.9232 39.8761 41.8944 40.1511C41.8814 40.0646 41.8758 39.9771 41.8776 39.8895C41.8771 39.5235 41.9586 39.1619 42.1162 38.8316V38.8316C42.8518 37.2208 45.3066 36.0258 48.2002 36.0187C51.0939 36.0117 53.5434 37.187 54.3022 38.8013C54.4617 39.1298 54.5464 39.4897 54.5499 39.8549V39.8549Z" fill="#CB9A4B"/>
<path d="M65.0707 41.5284C65.051 41.6463 65.0277 41.7623 65.0016 41.879C63.8636 36.86 56.7647 32.9999 48.1842 33.0127C39.6037 33.0254 32.5272 36.9281 31.4121 41.9588C31.3783 41.8446 31.3621 41.7282 31.3422 41.6099C32.1993 36.4132 39.4067 32.3385 48.1806 32.314C56.9546 32.2896 64.1868 36.3344 65.0707 41.5284Z" fill="#EAB259"/>
<path d="M65.162 42.5856C65.1757 48.2792 57.6111 52.9078 48.2303 52.9389C38.8495 52.9701 31.2678 48.3682 31.2625 42.6722C31.2604 42.3187 31.2889 41.9657 31.3475 41.6172C32.2305 46.8085 39.4583 50.8485 48.2331 50.8269C57.0078 50.8052 64.2152 46.7305 65.0743 41.5302C65.1324 41.879 65.1618 42.232 65.162 42.5856V42.5856Z" fill="#CB9A4B"/>
<path d="M63.6897 40.3099C63.7358 40.2929 63.786 40.2908 63.8333 40.3038C64.4977 40.4406 64.7758 40.3463 64.6211 40.0074C64.6112 39.9739 64.5841 39.882 64.5234 39.7485C64.0031 38.3877 61.2396 32.4194 48.4672 32.3201C34.3881 32.2071 33.4466 37.1591 31.6329 39.3036C31.228 39.8272 30.9929 40.4622 30.9591 41.1233C30.8744 42.3023 31.3087 43.5462 32.2884 44.0017C33.8355 44.7167 35.9255 43.2509 36.2485 44.4156C36.2829 44.5503 36.3043 44.688 36.3125 44.8268C36.3416 45.2634 36.2916 45.781 36.2692 46.2996L36.2741 46.3163C36.2425 47.2343 36.3342 48.1492 37.2451 48.5767C38.8357 49.3364 41.6452 47.1279 42.4696 47.2629C43.294 47.3979 44.6818 50.7407 46.2703 51.0527C47.8589 51.3647 47.7654 47.4303 48.5252 47.0907C49.2851 46.751 53.0637 50.5686 54.3096 50.1004C55.5555 49.6322 54.9997 46.204 55.2739 45.8201C55.5482 45.4361 60.1267 47.7784 60.7398 46.6552C61.3529 45.5319 60.6041 44.4538 62.3221 44.9577C64.0401 45.4617 64.4126 43.2374 64.3046 42.5544C64.1712 41.9184 63.3477 40.4746 63.6897 40.3099ZM43.4651 38.9781C43.4616 37.7978 45.7704 36.8368 48.6181 36.8281C51.4659 36.8195 53.7797 37.7713 53.7847 38.936C53.7856 39.0368 53.7691 39.137 53.7359 39.2321C53.7673 39.3251 53.7838 39.4225 53.7848 39.5206C53.7883 40.7009 51.4794 41.6619 48.6317 41.6706C45.7839 41.6792 43.4665 40.7254 43.4652 39.5627C43.4656 39.4615 43.4831 39.3611 43.5168 39.2657C43.4835 39.1734 43.466 39.0762 43.4651 38.9781V38.9781Z" fill="#6B3C1B"/>
<path d="M53.7741 39.0846C53.7653 39.14 53.752 39.1945 53.7345 39.2478C53.3843 38.2063 51.2267 37.4142 48.6224 37.4267C46.0181 37.4391 43.8585 38.2288 43.5181 39.2805C43.4978 39.227 43.4816 39.1721 43.4696 39.1161C43.6194 37.9935 45.8654 37.0965 48.6257 37.0894C51.3861 37.0824 53.6206 37.9607 53.7741 39.0846Z" fill="#E080AD"/>
<path d="M53.7833 38.9516C53.7849 38.9961 53.7818 39.0407 53.7742 39.0846C53.6207 37.9607 51.3618 37.0714 48.6214 37.0847C45.881 37.0979 43.6234 37.9863 43.4652 39.1114C43.4579 39.0682 43.4551 39.0243 43.4568 38.9806C43.4533 37.8003 45.7621 36.8393 48.6099 36.8306C51.4577 36.822 53.7798 37.7713 53.7833 38.9516Z" fill="#F38EBB"/>
<path d="M40.0773 38.707C39.9974 38.7062 39.9199 38.6804 39.8556 38.6332C39.5956 38.4522 39.2907 38.3463 38.9745 38.3271V38.3271C38.6757 38.3609 38.3813 38.4266 38.0964 38.523C38.0493 38.5427 37.9986 38.5525 37.9475 38.5516C37.8964 38.5507 37.846 38.5392 37.7996 38.5178C37.7532 38.4964 37.7117 38.4657 37.6778 38.4274C37.6439 38.3892 37.6184 38.3443 37.6027 38.2956C37.5871 38.247 37.5817 38.1956 37.587 38.1448C37.5922 38.094 37.608 38.0448 37.6333 38.0004C37.6585 37.9559 37.6927 37.9172 37.7337 37.8867C37.7747 37.8562 37.8216 37.8346 37.8714 37.8232C38.2353 37.7033 38.6118 37.6255 38.9934 37.5915C39.4643 37.6161 39.9188 37.7725 40.3051 38.0429C40.3692 38.0884 40.4172 38.1531 40.442 38.2277C40.4667 38.3023 40.467 38.3828 40.4428 38.4576C40.4186 38.5324 40.3711 38.5975 40.3073 38.6434C40.2435 38.6893 40.1667 38.7136 40.0881 38.7128L40.0773 38.707Z" fill="#8E542D"/>
<path d="M39.1411 36.8512C39.0615 36.8535 38.9836 36.8284 38.9202 36.7802C38.6593 36.6 38.3547 36.4933 38.0384 36.4714V36.4714C37.739 36.5023 37.4443 36.568 37.1603 36.6673C37.1132 36.6871 37.0626 36.697 37.0115 36.6963C36.9604 36.6955 36.9101 36.6842 36.8636 36.663C36.8172 36.6418 36.7756 36.6112 36.7416 36.5731C36.7076 36.535 36.6819 36.4902 36.6661 36.4417C36.6503 36.3931 36.6447 36.3418 36.6497 36.291C36.6548 36.2402 36.6703 36.191 36.6953 36.1465C36.7203 36.102 36.7544 36.0631 36.7952 36.0325C36.836 36.0018 36.8828 35.9799 36.9325 35.9682C37.2973 35.8481 37.6746 35.7701 38.0572 35.7358C38.5281 35.7602 38.9827 35.9166 39.3689 36.1872C39.4077 36.216 39.4403 36.2522 39.465 36.2938C39.4897 36.3353 39.5059 36.3813 39.5127 36.4291C39.5195 36.477 39.5168 36.5257 39.5047 36.5724C39.4926 36.6192 39.4713 36.6631 39.4422 36.7017C39.408 36.7492 39.3627 36.7877 39.3102 36.8137C39.2577 36.8398 39.1997 36.8526 39.1411 36.8512V36.8512Z" fill="#E76924"/>
<path d="M56.6897 37.3686C56.6106 37.3676 56.5339 37.3415 56.4708 37.294C56.2103 37.1138 55.9058 37.008 55.5897 36.9879V36.9879C55.2909 37.0219 54.9966 37.0876 54.7117 37.1838C54.6646 37.2037 54.614 37.2135 54.5629 37.2128C54.5119 37.2121 54.4615 37.2007 54.4151 37.1795C54.3686 37.1583 54.327 37.1277 54.293 37.0896C54.259 37.0515 54.2333 37.0068 54.2175 36.9582C54.2016 36.9097 54.1961 36.8584 54.2011 36.8076C54.2061 36.7567 54.2217 36.7075 54.2467 36.663C54.2718 36.6185 54.3058 36.5797 54.3466 36.549C54.3874 36.5183 54.4341 36.4965 54.4839 36.4848C54.8487 36.3647 55.2261 36.2867 55.6086 36.2524C56.0788 36.2767 56.5326 36.4335 56.9175 36.7046C56.9564 36.7332 56.9892 36.7692 57.014 36.8106C57.0389 36.8519 57.0553 36.8978 57.0624 36.9456C57.0695 36.9933 57.0671 37.042 57.0553 37.0887C57.0434 37.1355 57.0225 37.1795 56.9936 37.2182C56.9583 37.2654 56.9124 37.3036 56.8596 37.3297C56.8068 37.3559 56.7486 37.3692 56.6897 37.3686V37.3686Z" fill="#5B9741"/>
<path d="M57.5792 44.8054C57.5096 44.7667 57.4546 44.7065 57.4224 44.6337C57.2855 44.3479 57.0734 44.1048 56.8087 43.9306V43.9306C56.5312 43.8117 56.2419 43.7226 55.9456 43.6647C55.8564 43.6386 55.7804 43.5799 55.7326 43.5003C55.6848 43.4206 55.6688 43.3259 55.6878 43.2349C55.7069 43.144 55.7595 43.0636 55.8352 43.0098C55.911 42.956 56.0042 42.9327 56.0963 42.9447C56.4727 43.0217 56.8392 43.141 57.1889 43.3003C57.5852 43.5562 57.9019 43.918 58.1033 44.3446C58.131 44.4153 58.1362 44.4927 58.1182 44.5665C58.1002 44.6402 58.0599 44.7066 58.0028 44.7566C57.9457 44.8066 57.8746 44.8378 57.7991 44.8458C57.7237 44.8539 57.6476 44.8386 57.5812 44.8018L57.5792 44.8054Z" fill="#5B9741"/>
<path d="M45.327 35.1928C45.2885 35.1698 45.2582 35.1353 45.2403 35.0942C45.1616 34.9299 45.0396 34.79 44.8875 34.6896V34.6896C44.7291 34.6189 44.5632 34.5663 44.3929 34.5329C44.366 34.5271 44.3404 34.5161 44.3177 34.5005C44.295 34.4849 44.2756 34.4649 44.2606 34.4418C44.2456 34.4186 44.2353 34.3928 44.2303 34.3657C44.2253 34.3386 44.2257 34.3107 44.2314 34.2838C44.2372 34.2568 44.2482 34.2313 44.2638 34.2085C44.2795 34.1858 44.2994 34.1664 44.3225 34.1514C44.3457 34.1365 44.3715 34.1262 44.3986 34.1212C44.4258 34.1162 44.4536 34.1166 44.4806 34.1223C44.6956 34.1657 44.9048 34.234 45.1041 34.3258C45.3308 34.4701 45.5116 34.6763 45.625 34.92C45.6363 34.9451 45.6424 34.9722 45.6432 34.9997C45.644 35.0272 45.6393 35.0546 45.6294 35.0803C45.6196 35.106 45.6047 35.1295 45.5858 35.1495C45.5668 35.1695 45.5441 35.1855 45.519 35.1967C45.4889 35.2112 45.4559 35.2184 45.4225 35.2177C45.3892 35.217 45.3564 35.2085 45.327 35.1928V35.1928Z" fill="#E76924"/>
<path d="M43.091 37.1077C43.0526 37.0846 43.0223 37.0502 43.0044 37.0091C42.926 36.8454 42.8043 36.7064 42.6524 36.6073V36.6073C42.4939 36.5365 42.328 36.4839 42.1578 36.4505C42.1071 36.4351 42.0641 36.4012 42.0372 36.3556C42.0103 36.31 42.0013 36.256 42.0122 36.2042C42.0231 36.1523 42.053 36.1065 42.096 36.0756C42.139 36.0447 42.192 36.031 42.2446 36.0372C42.4593 36.0818 42.6684 36.15 42.8681 36.2406C43.0958 36.3853 43.2769 36.5926 43.3898 36.8376C43.4011 36.8629 43.4073 36.8903 43.4079 36.918C43.4086 36.9457 43.4037 36.9733 43.3935 36.9991C43.3834 37.025 43.3683 37.0485 43.3489 37.0684C43.3296 37.0883 43.3065 37.1042 43.281 37.1151C43.251 37.1287 43.2181 37.1352 43.1851 37.1339C43.1522 37.1326 43.1199 37.1236 43.091 37.1077V37.1077Z" fill="#E76924"/>
<path d="M42.3258 34.5804C42.28 34.5812 42.2352 34.5668 42.1985 34.5393C42.0506 34.4347 41.8762 34.374 41.6954 34.3639V34.3639C41.5252 34.3837 41.3576 34.421 41.1952 34.4754C41.1688 34.4832 41.1412 34.4857 41.1139 34.4828C41.0866 34.4799 41.0601 34.4717 41.036 34.4585C41.0119 34.4454 40.9905 34.4277 40.9733 34.4063C40.956 34.385 40.9431 34.3604 40.9353 34.3341C40.9275 34.3077 40.925 34.2801 40.9279 34.2528C40.9308 34.2255 40.939 34.199 40.9522 34.1749C40.9653 34.1508 40.983 34.1295 41.0044 34.1122C41.0257 34.0949 41.0503 34.082 41.0766 34.0742C41.2849 34.0052 41.5005 33.9608 41.7191 33.9419C41.9881 33.9541 42.2479 34.0434 42.4676 34.1993C42.5037 34.2252 42.5306 34.262 42.5444 34.3043C42.5582 34.3465 42.5581 34.3921 42.5443 34.4343C42.5304 34.4766 42.5035 34.5133 42.4674 34.5392C42.4312 34.5651 42.3877 34.5788 42.3433 34.5783L42.3258 34.5804Z" fill="#5B9741"/>
<path d="M50.7156 34.2395C50.7499 34.2106 50.7755 34.1726 50.7892 34.1299C50.8411 33.9555 50.9407 33.7991 51.0768 33.6783V33.6783C51.2229 33.587 51.3783 33.5116 51.5404 33.4535C51.5663 33.444 51.59 33.4296 51.6103 33.411C51.6306 33.3924 51.647 33.37 51.6586 33.345C51.6702 33.3201 51.6768 33.2931 51.678 33.2656C51.6791 33.2381 51.6749 33.2107 51.6655 33.1848C51.656 33.1589 51.6416 33.1352 51.623 33.1149C51.6044 33.0947 51.582 33.0782 51.557 33.0666C51.5321 33.055 51.5051 33.0484 51.4776 33.0473C51.4501 33.0461 51.4226 33.0503 51.3968 33.0597C51.1901 33.1348 50.9925 33.2328 50.8077 33.352C50.6049 33.5296 50.4569 33.7614 50.3812 34.0202C50.3741 34.0611 50.3793 34.1031 50.3961 34.141C50.413 34.1789 50.4407 34.211 50.4758 34.2331C50.5109 34.2552 50.5518 34.2663 50.5933 34.2651C50.6347 34.2639 50.6749 34.2504 50.7087 34.2263L50.7156 34.2395Z" fill="#5156A5"/>
<path d="M48.2776 35.6444C48.2807 35.5993 48.2976 35.5563 48.3259 35.5211C48.4391 35.3788 48.5102 35.2078 48.5313 35.0272C48.521 34.8553 48.493 34.6849 48.4477 34.5188C48.4389 34.4676 48.4492 34.415 48.4767 34.3709C48.5041 34.3267 48.5468 34.2942 48.5966 34.2795C48.6464 34.2648 48.6999 34.2689 48.7469 34.291C48.794 34.3131 48.8312 34.3517 48.8516 34.3994C48.9064 34.6122 48.9383 34.8302 48.9469 35.0498C48.9153 35.3174 48.8098 35.5709 48.6423 35.782C48.6245 35.803 48.6027 35.8204 48.5782 35.833C48.5537 35.8456 48.5268 35.8532 48.4993 35.8555C48.4718 35.8577 48.4442 35.8544 48.4179 35.8459C48.3917 35.8374 48.3674 35.8237 48.3464 35.8058C48.3241 35.7854 48.3064 35.7604 48.2945 35.7326C48.2826 35.7047 48.2769 35.6747 48.2776 35.6444V35.6444Z" fill="#5156A5"/>
<path d="M47.1166 34.1761C47.0765 34.1546 47.045 34.1201 47.0271 34.0783C46.9468 33.9148 46.8231 33.7764 46.6695 33.6782V33.6782C46.5108 33.6082 46.345 33.5556 46.1749 33.5215C46.1479 33.5161 46.1221 33.5055 46.0992 33.4902C46.0763 33.475 46.0566 33.4553 46.0412 33.4324C46.0259 33.4095 46.0152 33.3839 46.0098 33.3568C46.0044 33.3298 46.0043 33.302 46.0097 33.275C46.015 33.2479 46.0256 33.2222 46.0409 33.1993C46.0562 33.1763 46.0758 33.1566 46.0987 33.1413C46.1216 33.1259 46.1473 33.1153 46.1743 33.1098C46.2013 33.1044 46.2291 33.1044 46.2562 33.1097C46.4713 33.1511 46.6809 33.2172 46.8808 33.3068C47.1087 33.4497 47.2918 33.6538 47.4093 33.8957C47.421 33.9209 47.4276 33.9482 47.4286 33.976C47.4297 34.0038 47.4252 34.0315 47.4154 34.0575C47.4056 34.0836 47.3907 34.1074 47.3716 34.1276C47.3525 34.1478 47.3295 34.164 47.3041 34.1752C47.2749 34.1895 47.2429 34.197 47.2104 34.1972C47.1779 34.1973 47.1459 34.1901 47.1166 34.1761V34.1761Z" fill="#8E542D"/>
<path d="M53.4931 34.9361C53.544 34.9146 53.5861 34.8765 53.6126 34.828C53.729 34.641 53.8928 34.4881 54.0874 34.3848V34.3848C54.2879 34.3259 54.494 34.2883 54.7024 34.2727C54.7372 34.2718 54.7714 34.2639 54.803 34.2493C54.8346 34.2347 54.8628 34.2139 54.8861 34.188C54.9093 34.1622 54.927 34.1319 54.9382 34.0989C54.9493 34.066 54.9536 34.0311 54.9508 33.9965C54.948 33.9618 54.9381 33.9281 54.9218 33.8974C54.9055 33.8667 54.8831 33.8396 54.856 33.8178C54.8289 33.7961 54.7976 33.7801 54.7641 33.7708C54.7306 33.7615 54.6956 33.7592 54.6612 33.7639C54.3949 33.7866 54.1319 33.8389 53.8773 33.9199C53.5809 34.0616 53.3317 34.2856 53.1593 34.5652C53.143 34.5945 53.1328 34.6268 53.1291 34.6601C53.1255 34.6934 53.1285 34.7271 53.138 34.7593C53.1475 34.7914 53.1633 34.8214 53.1845 34.8474C53.2056 34.8733 53.2318 34.8949 53.2614 34.9106C53.2952 34.9329 53.3339 34.9469 53.3741 34.9513C53.4144 34.9557 53.4552 34.9505 53.4931 34.9361V34.9361Z" fill="#8E542D"/>
<path d="M42.6436 45.4425C42.6988 45.3855 42.7345 45.3124 42.7454 45.2337C42.796 44.9203 42.9327 44.6271 43.1404 44.387V44.387C43.3761 44.1952 43.6317 44.0293 43.9028 43.8921C43.989 43.8465 44.0535 43.7686 44.0822 43.6755C44.1109 43.5824 44.1015 43.4817 44.0559 43.3955C44.0104 43.3094 43.9325 43.2448 43.8393 43.2161C43.7462 43.1874 43.6455 43.1969 43.5594 43.2424C43.2198 43.4204 42.9016 43.6364 42.6107 43.8862C42.2994 44.2395 42.0948 44.6739 42.0207 45.1389C42.0142 45.187 42.0172 45.2359 42.0296 45.2828C42.042 45.3297 42.0635 45.3737 42.0929 45.4123C42.1223 45.4508 42.159 45.4832 42.201 45.5076C42.2429 45.532 42.2893 45.5478 42.3373 45.5543C42.3935 45.5595 42.4501 45.5522 42.503 45.5329C42.556 45.5135 42.604 45.4827 42.6436 45.4425V45.4425Z" fill="#8E542D"/>
<path d="M33.9457 41.3067C34.0212 41.2827 34.0868 41.2346 34.1324 41.1698C34.3244 40.9186 34.5811 40.7244 34.8751 40.608V40.608C35.1663 40.5489 35.4631 40.5221 35.7602 40.5281C35.8536 40.522 35.9412 40.4806 36.0052 40.4123C36.0692 40.344 36.1048 40.2539 36.1049 40.1603C36.105 40.0667 36.0694 39.9765 36.0055 39.9081C35.9416 39.8397 35.8541 39.7982 35.7607 39.7919C35.3768 39.7912 34.994 39.8332 34.6194 39.9172C34.1789 40.0848 33.7948 40.3736 33.5117 40.7504C33.4659 40.8131 33.4413 40.8888 33.4413 40.9664C33.4414 41.044 33.4661 41.1196 33.5119 41.1823C33.5577 41.2449 33.6223 41.2914 33.6963 41.3149C33.7702 41.3385 33.8498 41.3379 33.9234 41.3133L33.9457 41.3067Z" fill="#5B9741"/>
<path d="M60.5827 38.9078C60.5035 38.9073 60.4264 38.8825 60.3618 38.8368C60.1015 38.6555 59.7965 38.5487 59.4799 38.5279V38.5279C59.1802 38.5621 58.8849 38.6281 58.5991 38.7247C58.509 38.7453 58.4145 38.7314 58.3342 38.6858C58.2539 38.6401 58.1937 38.566 58.1654 38.478C58.1371 38.3901 58.1429 38.2947 58.1815 38.2108C58.2201 38.1269 58.2889 38.0605 58.3741 38.0248C58.7393 37.9063 59.1165 37.8283 59.4988 37.7924C59.9696 37.8171 60.4238 37.9749 60.8086 38.2474C60.8747 38.2916 60.9247 38.3563 60.9508 38.4316C60.9769 38.5068 60.9777 38.5885 60.9532 38.6643C60.9286 38.7401 60.8801 38.8058 60.8148 38.8514C60.7495 38.8971 60.6712 38.9202 60.5916 38.9173L60.5827 38.9078Z" fill="#5B9741"/>
<path d="M40.226 43.3612C40.1586 43.4017 40.08 43.4196 40.0018 43.4123C39.6848 43.3904 39.3678 43.4547 39.0845 43.5986V43.5986C38.8433 43.7794 38.6231 43.9867 38.4281 44.2167C38.3614 44.2804 38.2732 44.3168 38.181 44.3187C38.0888 44.3207 37.9992 44.288 37.9299 44.2271C37.8606 44.1662 37.8166 44.0816 37.8066 43.9899C37.7966 43.8982 37.8213 43.8061 37.8759 43.7317C38.1274 43.442 38.4114 43.1822 38.7224 42.9575C39.1392 42.7367 39.6101 42.6385 40.0805 42.6742C40.1776 42.685 40.2665 42.7337 40.3281 42.8096C40.3896 42.8855 40.4188 42.9826 40.4094 43.0798C40.4037 43.138 40.3841 43.194 40.3521 43.243C40.3202 43.292 40.2769 43.3326 40.226 43.3612V43.3612Z" fill="#5B9741"/>
<path d="M57.2013 35.4302C57.1457 35.4296 57.0917 35.4117 57.0468 35.3789C56.865 35.2512 56.6511 35.1769 56.4292 35.1647V35.1647C56.2193 35.1883 56.0125 35.2342 55.8123 35.3015C55.7788 35.3154 55.7428 35.3221 55.7066 35.3212C55.6703 35.3203 55.6347 35.3117 55.6019 35.2961C55.5692 35.2805 55.5401 35.2582 55.5166 35.2306C55.4931 35.203 55.4756 35.1708 55.4653 35.136C55.455 35.1013 55.4522 35.0647 55.457 35.0288C55.4617 34.9928 55.474 34.9583 55.493 34.9274C55.5119 34.8965 55.5372 34.87 55.5671 34.8495C55.5971 34.829 55.6309 34.815 55.6666 34.8085C55.9213 34.7247 56.1846 34.6703 56.4516 34.6461C56.781 34.6639 57.0988 34.7735 57.369 34.9626C57.4151 34.995 57.4493 35.0415 57.4665 35.095C57.4837 35.1486 57.4829 35.2063 57.4644 35.2594C57.4458 35.3125 57.4104 35.3581 57.3636 35.3893C57.3168 35.4205 57.2611 35.4355 57.2049 35.4322L57.2013 35.4302Z" fill="#E76924"/>
<path d="M59.9225 36.5101C59.8667 36.5107 59.8123 36.4927 59.768 36.4588C59.5846 36.3343 59.3715 36.2604 59.1504 36.2446V36.2446C58.9412 36.2664 58.7352 36.312 58.5363 36.3806C58.5028 36.3945 58.4668 36.4012 58.4305 36.4003C58.3943 36.3993 58.3586 36.3908 58.3259 36.3752C58.2932 36.3596 58.2641 36.3373 58.2406 36.3097C58.217 36.2821 58.1996 36.2499 58.1893 36.2151C58.179 36.1803 58.1761 36.1438 58.1809 36.1078C58.1857 36.0719 58.198 36.0374 58.217 36.0065C58.2359 35.9756 58.2612 35.949 58.2911 35.9285C58.321 35.908 58.3549 35.8941 58.3906 35.8875C58.6453 35.8039 58.9086 35.7494 59.1756 35.7252C59.505 35.7428 59.8228 35.8525 60.093 36.0417C60.1474 36.0828 60.1834 36.1437 60.1931 36.2111C60.2029 36.2786 60.1855 36.3472 60.145 36.4019C60.1201 36.4373 60.0866 36.4658 60.0477 36.4847C60.0088 36.5036 59.9657 36.5124 59.9225 36.5101V36.5101Z" fill="#5156A5"/>
<path d="M39.5378 41.6986C39.6141 41.6762 39.6802 41.6277 39.7245 41.5616C39.9188 41.3128 40.1748 41.1191 40.4671 40.9999C40.7585 40.9421 41.0552 40.9153 41.3522 40.92C41.4004 40.9202 41.4482 40.9109 41.4927 40.8925C41.5373 40.8742 41.5778 40.8473 41.612 40.8133C41.6461 40.7793 41.6731 40.7389 41.6916 40.6944C41.7101 40.6499 41.7196 40.6022 41.7196 40.554C41.7199 40.4563 41.6815 40.3624 41.6127 40.293C41.5439 40.2236 41.4505 40.1843 41.3527 40.1838C40.9689 40.1831 40.5861 40.2251 40.2115 40.3091C39.7713 40.4773 39.3875 40.7661 39.1038 41.1423C39.0756 41.1817 39.0555 41.2262 39.0446 41.2734C39.0338 41.3206 39.0324 41.3695 39.0406 41.4173C39.0488 41.465 39.0664 41.5106 39.0924 41.5515C39.1183 41.5924 39.1521 41.6277 39.1918 41.6554C39.241 41.6916 39.2986 41.7145 39.3591 41.7221C39.4197 41.7296 39.4812 41.7215 39.5378 41.6986V41.6986Z" fill="#5156A5"/>
<path d="M59.9088 42.2239C59.9882 42.2262 60.0662 42.2031 60.1317 42.1581C60.3922 41.9779 60.696 41.8703 61.0119 41.8465V41.8465C61.3105 41.8786 61.6047 41.943 61.8895 42.0384C61.9805 42.0611 62.0768 42.0483 62.1588 42.0025C62.2407 41.9568 62.3021 41.8815 62.3305 41.792C62.3588 41.7026 62.3521 41.6057 62.3115 41.521C62.271 41.4364 62.1997 41.3704 62.1121 41.3365C61.7471 41.22 61.3702 41.1445 60.9884 41.1113C60.5172 41.1367 60.0631 41.2961 59.6794 41.5708C59.6186 41.6177 59.5739 41.6824 59.5515 41.7559C59.5292 41.8294 59.5304 41.908 59.5549 41.9808C59.5794 42.0536 59.6261 42.117 59.6883 42.162C59.7505 42.207 59.8253 42.2315 59.9021 42.232L59.9088 42.2239Z" fill="#8E542D"/>
<path d="M52.6634 45.7706C52.607 45.7154 52.5707 45.643 52.5602 45.5648C52.5059 45.252 52.3672 44.9599 52.1591 44.7202V44.7202C51.927 44.5307 51.6753 44.3664 51.4085 44.2302C51.33 44.1808 51.273 44.1037 51.2488 44.0142C51.2246 43.9247 51.235 43.8293 51.2779 43.7472C51.3209 43.665 51.3931 43.602 51.4804 43.5707C51.5677 43.5394 51.6635 43.5421 51.7489 43.5783C52.088 43.7523 52.4071 43.9627 52.7007 44.2057C53.0132 44.5581 53.2191 44.992 53.2946 45.4568C53.3056 45.5332 53.2922 45.6112 53.2563 45.6795C53.2204 45.7478 53.1638 45.803 53.0946 45.8373C53.0254 45.8715 52.9472 45.883 52.8711 45.87C52.795 45.8571 52.725 45.8205 52.6709 45.7653L52.6634 45.7706Z" fill="#8E542D"/>
<path d="M56.6928 41.2115C56.6173 41.1875 56.5514 41.1402 56.5045 41.0763C56.3103 40.8257 56.0522 40.632 55.7572 40.5157V40.5157C55.4615 40.4573 55.1604 40.4315 54.8591 40.4388C54.8083 40.4431 54.7572 40.4369 54.7089 40.4204C54.6607 40.404 54.6164 40.3777 54.5788 40.3433C54.5412 40.3088 54.5111 40.267 54.4905 40.2204C54.4699 40.1738 54.4592 40.1234 54.4591 40.0724C54.4589 40.0214 54.4693 39.971 54.4896 39.9242C54.51 39.8775 54.5397 39.8354 54.5771 39.8008C54.6145 39.7661 54.6586 39.7396 54.7068 39.7228C54.7549 39.7061 54.806 39.6995 54.8568 39.7035C55.2401 39.6999 55.6226 39.7393 55.9971 39.8208C56.4387 39.9858 56.8242 40.2733 57.1083 40.6495C57.1366 40.6885 57.1569 40.7326 57.1681 40.7795C57.1793 40.8263 57.1812 40.8749 57.1736 40.9225C57.166 40.97 57.149 41.0156 57.1238 41.0566C57.0985 41.0976 57.0654 41.1332 57.0264 41.1614C56.9787 41.1954 56.9236 41.2177 56.8656 41.2264C56.8076 41.2351 56.7484 41.23 56.6928 41.2115V41.2115Z" fill="#E76924"/>
<path d="M48.9876 45.2729C48.9188 45.2337 48.8647 45.1731 48.8336 45.1003C48.6959 44.8151 48.4839 44.5722 48.2199 44.3972V44.3972C47.9437 44.2772 47.6552 44.1878 47.3596 44.1305C47.3091 44.1239 47.2606 44.107 47.217 44.0809C47.1734 44.0547 47.1357 44.0198 47.1062 43.9783C47.0768 43.9369 47.0562 43.8898 47.0458 43.84C47.0354 43.7902 47.0354 43.7388 47.0458 43.689C47.0563 43.6393 47.0769 43.5922 47.1064 43.5507C47.1358 43.5093 47.1736 43.4744 47.2172 43.4483C47.2608 43.4221 47.3093 43.4052 47.3597 43.3987C47.4102 43.3922 47.4614 43.3962 47.5103 43.4105C47.8858 43.4879 48.2513 43.6075 48.6 43.7669C48.9965 44.0212 49.3131 44.3822 49.5137 44.8084C49.5413 44.8791 49.5465 44.9566 49.5285 45.0303C49.5105 45.104 49.4702 45.1704 49.4131 45.2204C49.356 45.2704 49.2849 45.3016 49.2095 45.3097C49.134 45.3178 49.0579 45.3024 48.9915 45.2657L48.9876 45.2729Z" fill="#5156A5"/>
</svg>
