<svg width="49" height="76" viewBox="0 0 49 76" fill="none" xmlns="http://www.w3.org/2000/svg">
<path d="M20.4862 35.6503C20.3686 35.5416 20.2744 35.4261 20.206 35.3069L20.4862 35.6503Z" fill="#B76028"/>
<path d="M53.1784 26.3657L53.2123 26.636C53.2134 28.8347 46.5064 32.4262 37.765 34.8453C29.0236 37.2645 21.4267 37.6332 20.2978 35.7416L20.1872 35.4903L53.1784 26.3657Z" fill="#B76028"/>
<path d="M52.9522 26.1527L20.2737 35.3137C19.6845 33.1515 26.5194 29.3491 35.5422 26.8199C44.565 24.2907 52.3604 23.9903 52.9522 26.1527Z" fill="#B76028"/>
<path d="M25.85 20.6088L24.1284 21.0852L28.8929 38.3031L30.6144 37.8267L25.85 20.6088Z" fill="#EDD398"/>
<path d="M29.6854 38.1294L27.9615 38.6138L24.9422 27.509L23.2169 21.153L24.9384 20.6657L26.6953 27.1298L29.6854 38.1294Z" fill="#FFE6A9"/>
<path d="M37.1108 23.5117L35.1836 23.6731L36.7988 42.9586L38.726 42.7972L37.1108 23.5117Z" fill="#EDD398"/>
<path d="M37.7257 42.7165L35.8447 42.8789L34.8528 30.7784L34.2837 23.8546L36.167 23.695L36.7451 30.7349L37.7257 42.7165Z" fill="#FFE6A9"/>
<path d="M41.6936 17.5324L39.7664 17.6938L41.3816 36.9793L43.3089 36.8179L41.6936 17.5324Z" fill="#EDD398"/>
<path d="M42.4126 36.8857L40.5285 37.0535L39.5562 24.7599L39.0008 17.7259L40.885 17.5581L41.4489 24.7126L42.4126 36.8857Z" fill="#FFE6A9"/>
<path d="M42.7281 21.0896L40.8542 21.5679L45.6401 40.3198L47.514 39.8415L42.7281 21.0896Z" fill="#EDD398"/>
<path d="M46.4927 40.1415L44.6192 40.6186L41.5779 28.715L39.8373 21.9017L41.7111 21.422L43.4795 28.352L46.4927 40.1415Z" fill="#FFE6A9"/>
<path d="M36.8605 17.266L34.9965 17.7817L40.1578 36.4338L42.0218 35.918L36.8605 17.266Z" fill="#EDD398"/>
<path d="M41.232 36.102L39.3771 36.6218L36.1201 24.7194L34.2569 17.9087L36.1117 17.389L38.0081 24.3148L41.232 36.102Z" fill="#FFE6A9"/>
<path d="M33.6335 19.2206L31.7695 19.7363L36.9308 38.3884L38.7948 37.8726L33.6335 19.2206Z" fill="#EDD398"/>
<path d="M37.8911 37.98L36.0374 38.4882L32.7609 26.7777L30.8867 20.0754L32.7404 19.5672L34.648 26.3828L37.8911 37.98Z" fill="#FFE6A9"/>
<path d="M23.2516 24.3822L21.6332 25.1382L29.1938 41.3243L30.8122 40.5684L23.2516 24.3822Z" fill="#EDD398"/>
<path d="M30.0189 41.053L28.4037 41.8091L23.6163 31.4936L20.8769 25.5868L22.4897 24.8278L25.2773 30.8325L30.0189 41.053Z" fill="#FFE6A9"/>
<path d="M20.8071 26.7887L19.1887 27.5447L26.7494 43.7309L28.3678 42.9749L20.8071 26.7887Z" fill="#EDD398"/>
<path d="M27.5833 43.3234L25.9705 44.0823L21.1805 33.7655L18.4411 27.8596L20.0565 27.101L22.8415 33.1045L27.5833 43.3234Z" fill="#FFE6A9"/>
<path d="M44.6397 17.7347L42.7758 18.2505L47.9371 36.9026L49.801 36.3868L44.6397 17.7347Z" fill="#EDD398"/>
<path d="M49.059 36.5808L47.1377 37.0939L43.7255 25.1769L41.772 18.3561L43.6906 17.8427L45.6761 24.7785L49.059 36.5808Z" fill="#FFE6A9"/>
<path d="M50.9604 36.4704L48.7075 36.623L47.9671 24.3668L47.5444 17.3519L49.7971 17.202L50.2263 24.3313L50.9604 36.4704Z" fill="#FFE6A9"/>
<path d="M29.1735 22.3995L27.3909 22.5134L28.5305 40.342L30.3131 40.228L29.1735 22.3995Z" fill="#EDD398"/>
<path d="M29.4587 40.3623L27.6729 40.4747L26.9422 29.1655L26.5255 22.6953L28.3086 22.5827L28.7355 29.1623L29.4587 40.3623Z" fill="#FFE6A9"/>
<path d="M47.1749 13.6921L45.2448 13.8154L46.7861 37.9265L48.7161 37.8031L47.1749 13.6921Z" fill="#EDD398"/>
<path d="M47.678 37.7731L45.8228 37.9056L44.9409 22.5926L44.4366 13.8286L46.2917 13.6962L46.8039 22.6093L47.678 37.7731Z" fill="#FFE6A9"/>
<path d="M29.9198 18.81L27.8005 19.6426L35.2724 38.6623L37.3918 37.8297L29.9198 18.81Z" fill="#EDD398"/>
<path d="M36.3036 38.1027L34.2027 38.9319L29.4942 26.8958L26.7984 20.0066L28.9019 19.1776L31.6412 26.1821L36.3036 38.1027Z" fill="#FFE6A9"/>
<path d="M29.7998 25.3442L28.1146 26.6021L39.4002 41.7222L41.0854 40.4644L29.7998 25.3442Z" fill="#EDD398"/>
<path d="M40.4232 40.9685L38.7264 42.2262L31.4871 32.5857L27.3421 27.0676L29.0418 25.8075L33.255 31.4175L40.4232 40.9685Z" fill="#FFE6A9"/>
<path d="M30.1451 29.9216L28.6893 31.2068L40.219 44.2674L41.6748 42.9823L30.1451 29.9216Z" fill="#EDD398"/>
<path d="M41.1053 43.5629L39.6501 44.84L32.3138 36.5848L28.1162 31.861L29.5711 30.5865L33.8403 35.3886L41.1053 43.5629Z" fill="#FFE6A9"/>
<path d="M53.1198 26.6748L56.3218 51.0802C56.4237 51.8892 56.231 52.7076 55.7788 53.3868C55.3266 54.066 54.6448 54.5609 53.8572 54.7817L34.3977 60.1391C33.606 60.3588 32.7611 60.2856 32.0191 59.9328C31.277 59.58 30.6881 58.9716 30.3611 58.2201L20.486 35.6509C21.6191 37.5151 29.1371 37.1529 37.796 34.7726C46.4549 32.3923 53.1217 28.8457 53.1198 26.6748Z" fill="#D16B28"/>
</svg>
