<svg width="180" height="180" viewBox="0 0 180 180" fill="none" xmlns="http://www.w3.org/2000/svg">
<g clip-path="url(#clip0)">
<path d="M90.12 73.45C104.408 73.45 115.99 71.2472 115.99 68.53C115.99 65.8128 104.408 63.61 90.12 63.61C75.8324 63.61 64.25 65.8128 64.25 68.53C64.25 71.2472 75.8324 73.45 90.12 73.45Z" fill="#E1F4F9"/>
<path d="M116 68.53C116 68.53 116 145.37 90.13 145.37C64.26 145.37 64.24 68.53 64.24 68.53H116Z" fill="#E1F4F9"/>
<path d="M90.1199 76.23C102.833 76.23 113.14 74.2645 113.14 71.84C113.14 69.4155 102.833 67.45 90.1199 67.45C77.4063 67.45 67.0999 69.4155 67.0999 71.84C67.0999 74.2645 77.4063 76.23 90.1199 76.23Z" fill="#FF3E5F"/>
<path d="M113.13 71.84C113.13 71.84 113.13 140.53 90.1299 140.53C67.1299 140.53 67.1299 71.84 67.1299 71.84H113.13Z" fill="#FF3E5F"/>
<path d="M90.12 150.89C94.0302 150.89 97.2 149.395 97.2 147.55C97.2 145.705 94.0302 144.21 90.12 144.21C86.2099 144.21 83.04 145.705 83.04 147.55C83.04 149.395 86.2099 150.89 90.12 150.89Z" fill="#E1F4F9"/>
<path d="M106.32 157.9C106.32 161.16 99.0599 162.74 90.1199 162.74C81.1799 162.74 73.9199 161.16 73.9199 157.9C73.9199 154.64 81.1699 149.66 90.1199 149.66C99.0699 149.66 106.32 154.64 106.32 157.9Z" fill="#E1F4F9"/>
<path d="M71.4598 80.85C70.4598 80.85 70.0598 94.9 72.7798 108.85C75.6798 123.74 82.8498 136.85 84.7798 136.23C86.4998 135.65 88.4398 131.87 81.8498 123.23C71.2098 109.32 73.5798 80.85 71.4598 80.85Z" fill="#EA3F64"/>
<path d="M118.68 66.77C118.68 72.63 109.83 73.04 90.91 73.85C71.99 74.66 65.23 71.58 64.71 71.45C64.19 71.32 62.53 71 61.47 67C62.52 69.8 63.89 70.1 64.3 70.2C64.71 70.3 71.58 73.43 90.5 72.61C109.42 71.79 118.27 71.38 118.27 65.53C118.287 64.6522 118.196 63.7757 118 62.92C118.483 64.1447 118.714 65.454 118.68 66.77V66.77Z" fill="#EFE6E6"/>
<path d="M118.27 65.48C118.27 71.33 109.42 71.74 90.4999 72.56C71.5799 73.38 64.8199 70.29 64.2999 70.15C63.7799 70.01 62.5199 69.75 61.4699 67C61.3199 66.43 61.1799 65.78 61.0599 65C60.1099 59.14 70.4999 56 70.4999 56C67.9599 51.5 79.5899 49 79.5899 49C77.1399 45.79 89.4399 38 91.9999 39.8C92.4639 40.1495 92.8123 40.6302 92.9999 41.18L93.1799 41.71C93.6899 43.29 93.9699 45.1 96.3699 45.11C98.6199 45.11 99.7799 45.88 100.37 46.86C100.816 47.8457 100.904 48.9561 100.62 50C100.546 50.409 100.435 50.8106 100.29 51.2C100.29 51.2 102.61 51.2 106.7 53.92C107.548 54.4229 108.275 55.1056 108.83 55.92C109.091 56.3263 109.233 56.7973 109.24 57.28C109.236 57.777 109.047 58.2547 108.71 58.62C113.49 58.25 116.71 59.68 117.99 62.87C118.19 63.7253 118.284 64.6018 118.27 65.48V65.48Z" fill="white"/>
<path d="M98.09 43.9C98.09 46.34 96.75 48.16 94.32 48.16C91.89 48.16 90.46 46.34 90.46 43.9C90.46 41.46 93.26 41.62 94.32 41.62C95.38 41.62 98.09 41.47 98.09 43.9Z" fill="#FC1A35"/>
<path d="M97.18 36.82C97.0357 36.8288 96.8947 36.8671 96.7657 36.9325C96.6368 36.9978 96.5225 37.0889 96.43 37.2C96.2223 37.4105 96.0409 37.6456 95.89 37.9C95.5623 38.397 95.2938 38.9306 95.09 39.49C94.8965 40.0433 94.7362 40.6076 94.61 41.18C94.449 41.7501 94.3583 42.3378 94.34 42.93C94.34 42.93 94.34 42.93 94.34 42.93C94.1109 42.3417 94.0486 41.7015 94.16 41.08C94.2817 40.4681 94.4869 39.8759 94.77 39.32C95.046 38.7592 95.3813 38.2295 95.77 37.74C95.9608 37.4959 96.1789 37.2745 96.42 37.08C96.532 36.9686 96.667 36.8831 96.8156 36.8295C96.9642 36.776 97.1227 36.7556 97.28 36.77C97.28 36.77 97.28 36.77 97.28 36.77C97.28 36.77 97.2 36.83 97.18 36.82Z" fill="#330C09"/>
<path d="M93.0999 42.39C93.3063 42.4034 93.5134 42.4034 93.7199 42.39H94.2499C94.655 42.3849 95.0599 42.415 95.4599 42.48C95.3361 42.6886 95.1584 42.8599 94.9454 42.9761C94.7325 43.0922 94.4922 43.1488 94.2499 43.14C94.0044 43.1458 93.7621 43.0835 93.5499 42.96C93.4382 42.903 93.3402 42.8226 93.2625 42.7242C93.1849 42.6258 93.1294 42.5118 93.0999 42.39V42.39Z" fill="#E21A3B"/>
<path d="M70.6899 55.13C71.5123 55.8772 72.4344 56.5065 73.4299 57C74.3866 57.5086 75.3916 57.9207 76.4299 58.23C78.5232 58.8592 80.6797 59.255 82.8599 59.41C85.0596 59.5751 87.2677 59.5951 89.4699 59.47C91.6863 59.3386 93.8913 59.0579 96.0699 58.63C93.956 59.3898 91.7615 59.9032 89.5299 60.16C87.2963 60.4584 85.0383 60.5321 82.7899 60.38C80.5293 60.2582 78.3005 59.7929 76.1799 59C74.0268 58.2434 72.1262 56.9036 70.6899 55.13V55.13Z" fill="#EFE6E6"/>
<path d="M85.4099 50C86.363 50.6089 87.4056 51.0644 88.4999 51.35C89.5589 51.6304 90.658 51.7285 91.7499 51.64C92.8399 51.56 93.9999 51.36 95.1199 51.2C96.2529 51.034 97.3749 50.8002 98.4799 50.5C97.5145 51.1862 96.4342 51.6942 95.2899 52C94.1591 52.3291 93.0012 52.5567 91.8299 52.68C90.6135 52.7712 89.3924 52.5831 88.2599 52.13C87.1306 51.6984 86.1437 50.9609 85.4099 50V50Z" fill="#EFE6E6"/>
<path d="M87.9199 47C87.9199 47 91.2599 44.28 94.1199 46C96.9799 47.72 100.59 47.64 99.4299 48.52C98.2699 49.4 93.3299 52.59 89.4299 50.08C85.5299 47.57 87.9199 47 87.9199 47Z" fill="white"/>
<path d="M76.8498 62.69L72.1098 63.5L70.2098 52.31L69.4698 47.99L68.1098 39.97L67.3698 35.66L66.0798 28.05L70.8298 27.24L71.3098 30.09L72.0498 34.4L73.4098 42.41L74.1398 46.74V46.75L76.8498 62.69Z" fill="white"/>
<path d="M72.0499 34.4L68.1099 39.97L67.3699 35.66L71.3099 30.09L72.0499 34.4Z" fill="#1A5CFF"/>
<path d="M74.14 46.74V46.75L70.21 52.31L69.47 47.99L73.41 42.41L74.14 46.74Z" fill="#1A5CFF"/>
<path d="M70.8299 27.24C70.8299 27.55 69.9899 27.84 68.8299 28.13C67.4699 28.46 66.1299 28.36 66.1299 28.05C66.1299 27.74 67.0699 27.36 68.1299 27.15C69.1899 26.94 70.8299 26.94 70.8299 27.24Z" fill="#F2ECE7"/>
</g>
<defs>
<clipPath id="clip0">
<rect width="57.68" height="135.74" fill="white" transform="translate(61 27)"/>
</clipPath>
</defs>
</svg>
