<svg width="76" height="76" viewBox="0 0 76 76" fill="none" xmlns="http://www.w3.org/2000/svg">
<path d="M38.6542 54.5687C56.8731 53.8602 71.4215 47.605 71.149 40.5974C70.8765 33.5897 55.8862 28.4833 37.6673 29.1918C19.4484 29.9003 4.89999 36.1554 5.17251 43.1631C5.44502 50.1707 20.4353 55.2772 38.6542 54.5687Z" fill="#ABABAB"/>
<path d="M38.6195 53.5792C56.8384 52.8707 71.3869 46.6155 71.1143 39.6078C70.8418 32.6002 55.8516 27.4938 37.6327 28.2023C19.4138 28.9108 4.86533 35.1659 5.13784 42.1736C5.41035 49.1812 20.4006 54.2877 38.6195 53.5792Z" fill="#DCDDDB"/>
<path d="M35.7093 31.0356C33.4346 33.0178 27.5144 29.3023 23.6709 30.6316C19.8273 31.9608 14.6164 32.9385 14.0168 36.6475C13.8747 37.4555 12.8406 42.871 15.2602 45.5004C17.3469 47.7789 18.5681 48.7798 24.7785 48.9833C30.9889 49.1868 40.2716 49.9539 41.8967 49.2722C43.5219 48.5905 53.3518 49.2872 55.4604 46.9368C57.569 44.5864 63.2784 43.8658 63.0219 40.8861C62.7655 37.9064 59.4746 33.4169 55.6411 34.3066C51.8077 35.1963 48.4638 32.4044 46.8952 30.9858C45.3266 29.5671 43.4554 24.3013 35.7093 31.0356Z" fill="#F9D885" stroke="#DBAC40" stroke-width="1.59" stroke-linecap="round" stroke-linejoin="round"/>
<path d="M20.8922 35.7784C20.8922 35.7784 23.7092 44.0603 26.563 42.7909C29.4169 41.5214 36.7855 42.7177 42.2651 43.2545C47.7447 43.7913 46.9354 41.9771 48.0561 40.3912" stroke="#DBAC3E" stroke-width="1.59" stroke-linecap="round" stroke-linejoin="round"/>
<path d="M18.291 43.5226C18.291 43.5226 25.659 47.4488 29.7871 47.6427C33.9152 47.8366 42.4828 48.0162 48.0754 46.2813C52.7653 44.8261 54.4336 46.0928 55.9899 44.49" stroke="#DBAC3E" stroke-width="1.59" stroke-linecap="round" stroke-linejoin="round"/>
<path d="M31.0289 32.7028C31.0289 32.7028 39.9217 40.9892 43.6429 36.549C47.3641 32.1087 57.0682 38.3251 56.4208 40.228C55.7735 42.131 50.7517 44.7087 47.6131 45.2207" stroke="#DBAC3E" stroke-width="1.59" stroke-linecap="round" stroke-linejoin="round"/>
<path d="M24.2456 31.4517C24.2456 31.4517 18.5388 29.8636 18.1194 33.7942C17.7001 37.7249 16.0589 41.3237 19.2459 42.5973C22.433 43.8709 31.8833 45.5297 33.255 44.9262" stroke="#DBAC3E" stroke-width="1.59" stroke-linecap="round" stroke-linejoin="round"/>
<path d="M57.3477 35.4221C57.9837 35.6925 58.53 36.1377 58.9231 36.7061C59.3162 37.2745 59.54 37.9427 59.5685 38.6332C59.654 41.0392 58.1771 42.7729 56.6059 43.0812" stroke="#DBAC3E" stroke-width="1.59" stroke-linecap="round" stroke-linejoin="round"/>
<path d="M26.7367 45.5923C26.7367 45.5923 37.9688 46.8922 39.1493 46.0797C40.3298 45.2671 45.3203 45.9752 47.8211 43.8048C49.5095 42.3905 51.3392 41.1539 53.281 40.1145" stroke="#DBAC3E" stroke-width="1.59" stroke-linecap="round" stroke-linejoin="round"/>
<path d="M16.0536 35.8016C16.0536 35.8016 14.4667 40.4213 16.124 43.4134C17.7812 46.4056 21.3066 47.5838 21.7542 47.5982C22.2018 47.6126 26.1789 48.233 26.1789 48.233" stroke="#DBAC3E" stroke-width="1.59" stroke-linecap="round" stroke-linejoin="round"/>
<path d="M39.496 27.0366C39.496 27.0366 40.8476 27.096 39.3259 27.0564C37.8042 27.0168 27.8635 28.712 26.4297 29.2198C24.9958 29.7276 15.7227 31.9319 15.1355 34.4563C14.5484 36.9807 17.7164 41.1885 19.7944 40.3584C21.8724 39.5284 28.4334 40.1647 31.055 43.5077C33.6765 46.8506 39.2166 46.1617 40.8506 43.7511C42.4845 41.3406 51.6653 43.2853 52.7182 41.1876C53.771 39.09 58.9973 36.712 58.2606 34.9339C57.5239 33.1559 54.5224 32.3563 54.2273 31.6409C53.9322 30.9255 47.5363 26.1589 39.496 27.0366Z" fill="#DD653A"/>
<path d="M25.1055 34.4907C21.7833 34.6168 21.5879 36.2104 22.7586 36.9161C23.9294 37.6218 27.8758 39.0318 28.5749 38.3802C29.2741 37.7286 30.1887 36.5829 29.3444 35.9492C28.5 35.3155 28.4296 34.3532 25.1055 34.4907Z" fill="#F8F2E8"/>
<path d="M42.8551 36.5246C40.5244 36.6145 40.399 37.7266 41.2086 38.2255C42.0182 38.7245 44.797 39.71 45.2866 39.2524C45.7763 38.7949 46.4177 37.9899 45.8257 37.5496C45.2338 37.1094 45.183 36.4341 42.8551 36.5246Z" fill="#F8F2E8"/>
<path d="M31.5514 28.8169C28.6587 28.9279 28.4908 30.0324 29.4958 30.5336C30.5009 31.0348 33.9379 31.984 34.5478 31.5242C35.1577 31.0644 35.9638 30.2533 35.2318 29.8119C34.4998 29.3704 34.4413 28.7054 31.5514 28.8169Z" fill="#F8F2E8"/>
<path d="M47.8314 32.6761C45.6944 33.5425 45.4631 34.6915 46.4208 34.8803C47.3784 35.0692 49.7928 34.3041 51.185 34.3823C53.2095 34.5045 51.7492 32.8359 51.0005 32.6224C50.2517 32.4089 49.9684 31.8096 47.8314 32.6761Z" fill="#F8F2E8"/>
<path d="M38.5162 33.4904C37.4913 34.6293 36.1758 35.468 34.7107 35.9166C33.1917 36.2971 31.6002 36.2799 30.0896 35.8669C31.1146 34.728 32.43 33.8893 33.8951 33.4407C35.4142 33.0602 37.0057 33.0774 38.5162 33.4904Z" fill="#385C2B"/>
<path d="M37.7066 32.5268C37.7066 32.5268 35.7288 32.4713 34.4447 31.3131C33.1606 30.1549 33.0555 28.3593 33.0555 28.3593C33.0555 28.3593 35.0333 28.4148 36.3141 29.5754C37.5948 30.7359 37.7066 32.5268 37.7066 32.5268Z" fill="#385C2B"/>
<path d="M43.0493 30.0845C42.8553 30.0906 42.6619 30.1083 42.47 30.1375C43.1533 29.5389 43.6508 28.7572 43.9038 27.8847C42.9395 28.0073 42.0238 28.3793 41.2471 28.9638C40.5494 29.561 40.0396 30.3474 39.7792 31.2281V31.2281L39.7762 31.2451L39.7989 31.2491C40.7933 31.8617 41.9378 32.1874 43.1058 32.1901C44.2844 32.1167 45.4197 31.7185 46.3859 31.0395C45.384 30.4174 44.2286 30.0867 43.0493 30.0845V30.0845Z" fill="#385C2B"/>
</svg>
