<svg width="80" height="80" viewBox="0 0 80 80" fill="none" xmlns="http://www.w3.org/2000/svg">
<g clip-path="url(#clip0)">
<path d="M53.0644 27.3005C58.4107 32.7455 61.4052 40.072 61.4033 47.7029C61.4013 55.3338 58.4031 62.6588 53.0541 68.1011C47.705 73.5433 40.4328 76.6676 32.8031 76.8013C25.1734 76.935 17.7962 74.0675 12.2598 68.8161C12.1914 68.751 12.122 68.6849 12.0536 68.6166C8.29977 64.9538 5.30164 60.5895 3.22941 55.7715C2.9759 55.1837 2.73746 54.5881 2.51408 53.9848C2.46338 53.8489 2.41378 53.7133 2.36528 53.5781C2.35537 53.5495 2.34434 53.5219 2.33442 53.4944C1.32257 50.6603 0.633021 47.7213 0.278816 44.733C0.261181 44.5753 0.242444 44.4188 0.225911 44.2612C0.209378 44.1036 0.193948 43.946 0.178517 43.7895C0.163086 43.633 0.152064 43.493 0.138837 43.3486C0.113854 43.04 0.0918095 42.7314 0.0727046 42.4227C0.0727046 42.3478 0.063887 42.2728 0.0605804 42.2023C0.0466191 41.9459 0.0348632 41.6887 0.0253108 41.4308C0.0253108 41.3205 0.0175947 41.1993 0.0142881 41.0825C0.00877706 40.8764 0.00436758 40.6691 0.00326538 40.4619C0.131039 48.1141 3.26714 55.4081 8.73276 60.7653C14.1984 66.1224 21.5538 69.1116 29.207 69.086C36.8602 69.0603 44.1954 66.0219 49.625 60.6282C55.0546 55.2346 58.1418 47.9197 58.2183 40.2668V40.2205C58.2183 40.0762 58.2183 39.9318 58.2183 39.7885V39.7466C58.2183 39.6176 58.2183 39.4887 58.2083 39.3608C58.2083 39.2892 58.2028 39.2175 58.1995 39.147C58.1826 38.7869 58.1554 38.4298 58.118 38.0757C58.1113 38.0051 58.1036 37.9335 58.0937 37.8629C57.986 36.9346 57.8055 36.0162 57.5536 35.1162C57.4776 34.8374 57.3927 34.5651 57.3023 34.2874C57.2803 34.218 57.2571 34.1496 57.2329 34.0813C57.2086 34.0129 57.1921 33.9633 57.1712 33.9049C57.0709 33.6228 56.9629 33.3417 56.8493 33.0639L56.8251 33.0066C56.7979 32.939 56.7692 32.8718 56.7391 32.8049C56.7116 32.7388 56.6818 32.6716 56.652 32.6054C56.6223 32.5393 56.5936 32.4743 56.5628 32.4081C56.5032 32.2759 56.4415 32.1447 56.3765 32.0147C55.7447 30.7196 54.9602 29.5048 54.0398 28.3961C53.948 28.2852 53.8543 28.175 53.7588 28.0655C53.7136 28.0126 53.6673 27.9552 53.6199 27.9079C53.4468 27.6962 53.2551 27.4967 53.0644 27.3005Z" fill="url(#paint0_linear)"/>
<path d="M39.742 58.2183C32.0892 58.1418 24.7743 55.0547 19.3806 49.6251C13.987 44.1955 10.9485 36.8603 10.9229 29.2071C10.8972 21.5539 13.8865 14.1985 19.2436 8.73284C24.6007 3.26722 31.8948 0.131119 39.5469 0.00334503H39.6098C40.0984 -0.00253337 40.5863 0.0015081 41.0735 0.0154693L41.4218 0.026492C41.6797 0.0353096 41.9369 0.0470655 42.1933 0.0617616L42.4138 0.0738858L42.8657 0.100339L43.1886 0.124588L43.3407 0.136712L43.7816 0.176391L44.2533 0.223785C44.411 0.240318 44.5675 0.259057 44.7251 0.276692C47.7134 0.630897 50.6524 1.32044 53.4865 2.3323L53.5703 2.36316L53.977 2.51196C54.5766 2.7324 55.1721 2.97084 55.7636 3.22728C60.2002 5.13551 64.2551 7.83041 67.7324 11.1819C62.19 5.96153 54.8229 3.12043 47.2105 3.26766C39.598 3.41488 32.3463 6.53871 27.0098 11.9694C21.6734 17.4002 18.677 24.7055 18.6631 32.3194C18.6493 39.9332 21.6189 47.2494 26.9355 52.6996C26.9951 52.7613 27.0557 52.8219 27.1174 52.8826C27.1791 52.9432 27.2387 53.0049 27.3004 53.0644C27.4966 53.2555 27.6961 53.4392 27.8989 53.6155C28.3309 54.0013 28.7766 54.3617 29.2358 54.6968C30.0483 55.2947 30.91 55.8227 31.8117 56.2751C31.9417 56.3413 32.0718 56.4052 32.2019 56.4658C32.2511 56.4901 32.3007 56.5132 32.3507 56.5352C32.3848 56.5518 32.419 56.5683 32.4532 56.5826C32.5193 56.6135 32.5865 56.6433 32.6527 56.6719C32.7188 56.7006 32.786 56.7314 32.8533 56.759L33.055 56.8439L33.2567 56.9254C33.3239 56.953 33.3911 56.9794 33.4595 57.0048C35.4653 57.7782 37.5925 58.1891 39.742 58.2183Z" fill="url(#paint1_linear)"/>
<path d="M52.1011 53.6198C52.3039 53.4412 52.5034 53.2549 52.6996 53.0687C47.2602 58.4442 39.9239 61.4634 32.2764 61.4736C24.6289 61.4839 17.2846 58.4844 11.8308 53.1234C6.37701 47.7624 3.25186 40.4706 3.13085 32.8241C3.00983 25.1776 5.90266 17.7905 11.1841 12.2597C11.2491 12.1913 11.3152 12.1219 11.3836 12.0535C15.0464 8.29967 19.4106 5.30155 24.2286 3.22932C24.8165 2.97581 25.412 2.73737 26.0153 2.51399C26.1512 2.46329 26.2868 2.41369 26.422 2.36519L26.5058 2.33433C29.3398 1.32248 32.2788 0.632929 35.2672 0.278724C35.4248 0.261089 35.5813 0.242352 35.7389 0.225819L36.2107 0.178425L36.6515 0.138746L36.8036 0.126622L37.0748 0.105679C37.2423 0.0931878 37.4099 0.0821655 37.5774 0.0726131L37.7978 0.0604888C38.055 0.0465276 38.3122 0.0347716 38.5694 0.0252192L38.9177 0.0141965C39.1238 0.00868551 39.331 0.00427603 39.5382 0.00317383C31.886 0.130947 24.592 3.26705 19.2349 8.73267C13.8777 14.1983 10.8885 21.5537 10.9141 29.2069C10.9398 36.8601 13.9783 44.1953 19.3719 49.6249C24.7656 55.0545 32.0804 58.1417 39.7333 58.2182H40.2491C42.3986 58.1893 44.5258 57.7788 46.5317 57.0057C46.6 56.9804 46.6672 56.9539 46.7345 56.9264L46.9362 56.8448L47.1379 56.7599C47.2051 56.7324 47.2713 56.7026 47.3385 56.6729C47.4057 56.6431 47.4719 56.6145 47.538 56.5836C47.5722 56.5693 47.6063 56.5527 47.6405 56.5362C47.6747 56.5197 47.7397 56.491 47.7893 56.4668C47.9193 56.4061 48.0494 56.3422 48.1795 56.2761C49.0811 55.8237 49.9428 55.2957 50.7553 54.6977C51.1587 54.4038 51.5518 54.0897 51.9347 53.7553C51.9964 53.7135 52.0493 53.6672 52.1011 53.6198Z" fill="url(#paint2_linear)"/>
<path d="M54.4091 25.591C59.9576 28.7503 64.3136 33.6462 66.8061 39.5245C69.2987 45.4028 69.7895 51.9376 68.203 58.1223C66.6165 64.307 63.0407 69.7986 58.0263 73.7513C53.012 77.7039 46.8372 79.8984 40.453 79.9968H40.3902C39.9015 80.0027 39.4136 79.9986 38.9265 79.9847L38.5782 79.9736C38.3202 79.9648 38.0631 79.9531 37.8066 79.9384L37.5862 79.9262C37.2776 79.9079 36.9689 79.8858 36.6603 79.8601L36.2194 79.8204L35.7477 79.773C35.5901 79.7565 35.4336 79.7378 35.276 79.7201C32.2876 79.3659 29.3486 78.6764 26.5146 77.6645L26.4308 77.6337L26.0241 77.4849C25.4245 77.2644 24.8289 77.026 24.2374 76.7695C19.8006 74.8617 15.7457 72.1668 12.2686 68.815C17.8146 74.0138 25.1742 76.837 32.7744 76.6811C40.3745 76.5251 47.6121 73.4025 52.9402 67.9805C58.2683 62.5586 61.2641 55.2675 61.2873 47.6658C61.3105 40.0641 58.3593 32.7549 53.0644 27.3006C53.0049 27.2388 52.9442 27.1782 52.8825 27.1176C52.8208 27.057 52.7613 26.9953 52.6996 26.9357C52.5034 26.7451 52.3039 26.5588 52.1011 26.3846C50.8647 25.2825 49.4829 24.3553 47.9943 23.6291C47.8642 23.5641 47.733 23.5024 47.6008 23.4429C47.5346 23.412 47.4696 23.3822 47.4035 23.3536C47.3373 23.3249 47.2701 23.2941 47.204 23.2665L47.0023 23.1805L46.945 23.1563C46.6672 23.0461 46.3862 22.9358 46.104 22.8344L45.9276 22.7727C45.8593 22.7485 45.791 22.7253 45.7215 22.7033C45.4482 22.6129 45.1704 22.528 44.8927 22.452C43.9927 22.2001 43.0743 22.0196 42.146 21.9119C42.0754 21.902 42.0038 21.8943 41.9333 21.8877C41.5794 21.8491 41.2223 21.8226 40.8619 21.8061L40.6525 21.7973H40.647C40.5191 21.7918 40.3902 21.7896 40.2612 21.7874C45.2252 21.8223 50.0969 23.1321 54.4091 25.591Z" fill="url(#paint3_linear)"/>
<path d="M27.8989 26.38C27.6961 26.5586 27.4966 26.7449 27.3004 26.9311C32.7399 21.5556 40.0762 18.5364 47.7236 18.5261C55.3711 18.5159 62.7154 21.5155 68.1692 26.8764C73.623 32.2374 76.7482 39.5292 76.8692 47.1757C76.9902 54.8223 74.0974 62.2093 68.8159 67.7402C68.7509 67.8085 68.6848 67.8779 68.6164 67.9463C64.9537 71.7002 60.5894 74.6983 55.7714 76.7705C55.1836 77.024 54.588 77.2625 53.9847 77.4858L53.578 77.6346L53.4942 77.6655C50.6602 78.6774 47.7212 79.3669 44.7329 79.7211C44.5752 79.7387 44.4187 79.7575 44.2611 79.774L43.7894 79.8214L43.3485 79.8611C43.0399 79.8868 42.7313 79.9088 42.4226 79.9272L42.2022 79.9393C41.9458 79.954 41.6886 79.9658 41.4307 79.9746L41.0824 79.9856C40.8763 79.9911 40.669 79.9956 40.4618 79.9967C48.114 79.8689 55.408 76.7328 60.7652 71.2672C66.1223 65.8015 69.1115 58.4461 69.0859 50.7929C69.0602 43.1397 66.0218 35.8045 60.6281 30.3749C55.2345 24.9453 47.9196 21.8581 40.2667 21.7816H39.7509C39.6219 21.7816 39.493 21.7872 39.3651 21.7916L39.1513 21.8004C38.7913 21.8166 38.4341 21.8437 38.08 21.8819C38.0094 21.8886 37.9378 21.8963 37.8672 21.9062C36.9389 22.0139 36.0205 22.1944 35.1206 22.4463C34.8417 22.5223 34.5695 22.6072 34.2917 22.6976C34.2223 22.7196 34.1539 22.7428 34.0856 22.767L33.9092 22.8287C33.6271 22.9294 33.3468 23.0367 33.0683 23.1506L33.0109 23.1748L32.8092 23.2608C32.742 23.2884 32.6759 23.3181 32.6097 23.3479C32.5436 23.3776 32.4775 23.4063 32.4125 23.4372C32.2802 23.4967 32.149 23.5584 32.019 23.6234C30.7236 24.2547 29.5088 25.0392 28.4004 25.9601C28.2219 26.0957 28.0599 26.2356 27.8989 26.38Z" fill="url(#paint4_linear)"/>
<path d="M58.2183 40.2579C58.1418 47.9107 55.0547 55.2256 49.6251 60.6193C44.1955 66.0129 36.8603 69.0514 29.2071 69.077C21.5539 69.1027 14.1984 66.1134 8.73281 60.7563C3.26719 55.3992 0.131088 48.1051 0.00331452 40.453C0.00331452 40.432 0.00331452 40.4111 0.00331452 40.3901C-0.00256389 39.9015 0.00147758 39.4136 0.0154388 38.9264C0.0154388 38.8096 0.0220527 38.6938 0.0264615 38.5781C0.0352791 38.3202 0.0470351 38.063 0.0617311 37.8066C0.0617311 37.7316 0.0694466 37.6567 0.0738554 37.5861C0.082673 37.4362 0.0925933 37.2863 0.103615 37.1353C0.111331 37.0251 0.119046 36.9204 0.127864 36.8124C0.127864 36.7617 0.135579 36.711 0.139988 36.6603C0.153215 36.5126 0.165339 36.3649 0.179668 36.2194C0.193996 36.0739 0.210528 35.9053 0.227061 35.7477C0.243594 35.59 0.262333 35.4335 0.279968 35.2759C0.634173 32.2876 1.32372 29.3486 2.33557 26.5145C2.34549 26.487 2.35652 26.4594 2.36644 26.4307C2.41493 26.2948 2.46453 26.1592 2.51523 26.024C2.73567 25.4244 2.97412 24.8289 3.23056 24.2374C5.13839 19.8006 7.83334 15.7456 11.1852 12.2686C5.9863 17.8146 3.16311 25.1742 3.31903 32.7743C3.47496 40.3744 6.59764 47.6121 12.0196 52.9402C17.4416 58.2683 24.7326 61.2641 32.3343 61.2873C39.936 61.3105 47.2452 58.3592 52.6996 53.0643C52.7613 53.0048 52.8219 52.9442 52.8826 52.8825C52.9432 52.8208 53.0049 52.7612 53.0644 52.6995C53.2551 52.5033 53.4414 52.3038 53.6155 52.101C54.7177 50.8647 55.6448 49.4828 56.371 47.9942C56.4361 47.8642 56.4978 47.733 56.5573 47.6007C56.5882 47.5357 56.6179 47.4696 56.6466 47.4034C56.6752 47.3373 56.7061 47.2712 56.7336 47.2039C56.7612 47.1367 56.7921 47.0695 56.8196 47.0022C56.8273 46.9824 56.8362 46.9637 56.8439 46.9449C56.9585 46.6664 57.0658 46.3861 57.1657 46.1039C57.1866 46.0455 57.2076 45.9871 57.2274 45.9276C57.2473 45.8681 57.2748 45.7909 57.2969 45.7215C57.3873 45.4481 57.4721 45.1704 57.5482 44.8926C57.8 43.9927 57.9806 43.0742 58.0882 42.1459C58.0982 42.0754 58.1059 42.0037 58.1125 41.9332C58.1511 41.5794 58.1775 41.2223 58.1941 40.8619C58.1941 40.7902 58.2007 40.7197 58.2029 40.648C58.2139 40.5158 58.2161 40.3868 58.2183 40.2579Z" fill="url(#paint5_linear)"/>
<path d="M67.7402 11.184C67.8086 11.249 67.878 11.3151 67.9463 11.3835C71.7002 15.0462 74.6983 19.4105 76.7706 24.2285C77.0241 24.8164 77.2625 25.4119 77.4859 26.0152C77.5366 26.1511 77.5862 26.2867 77.6347 26.4219C77.6446 26.4506 77.6556 26.4781 77.6656 26.5057C78.6774 29.3397 79.367 32.2787 79.7212 35.2671C79.7388 35.4247 79.7575 35.5812 79.7741 35.7388C79.7906 35.8964 79.806 36.054 79.8215 36.2106C79.8369 36.3671 79.8479 36.507 79.8611 36.6514C79.8611 36.7021 79.8689 36.7528 79.8733 36.8035C79.8821 36.9138 79.8898 37.024 79.8975 37.1265C79.9085 37.2775 79.9185 37.4274 79.9273 37.5773C79.9273 37.6522 79.9361 37.7272 79.9394 37.7977C79.9541 38.0549 79.9659 38.3121 79.9747 38.5693C79.9747 38.6795 79.9824 38.8007 79.9857 38.9176C79.9912 39.1237 79.9956 39.3309 79.9967 39.5381C79.8689 31.8859 76.7328 24.5919 71.2672 19.2348C65.8016 13.8776 58.4462 10.8884 50.793 10.914C43.1398 10.9397 35.8046 13.9781 30.375 19.3718C24.9454 24.7654 21.8582 32.0803 21.7817 39.7332V39.7795C21.7817 39.9239 21.7817 40.0683 21.7817 40.2116V40.2534C21.7817 40.3824 21.7872 40.5113 21.7917 40.6392C21.7917 40.7108 21.7972 40.7825 21.8005 40.853C21.8166 41.2131 21.8438 41.5702 21.882 41.9244C21.8887 41.9949 21.8964 42.0666 21.9063 42.1371C22.014 43.0654 22.1945 43.9838 22.4464 44.8838C22.5224 45.1626 22.6073 45.4349 22.6977 45.7126C22.7197 45.7821 22.7429 45.8504 22.7671 45.9188C22.7914 45.9871 22.8079 46.0367 22.8288 46.0951C22.9291 46.3773 23.0371 46.6583 23.1507 46.9361L23.1749 46.9934C23.2028 47.0603 23.2315 47.1275 23.2609 47.1951C23.2884 47.2612 23.3182 47.3285 23.348 47.3946C23.3777 47.4607 23.4064 47.5258 23.4372 47.5919C23.4968 47.7242 23.5585 47.8553 23.6235 47.9854C24.3497 49.474 25.2769 50.8558 26.379 52.0922C26.5576 52.295 26.7439 52.4945 26.9301 52.6907C21.6046 47.241 18.6281 39.9204 18.6397 32.3006C18.6514 24.6808 21.6502 17.3694 26.9925 11.936C32.3347 6.50259 39.5943 3.38043 47.2128 3.23983C54.8313 3.09922 62.2012 5.95138 67.7402 11.184Z" fill="url(#paint6_linear)"/>
<path d="M76.7705 55.7714C74.8627 60.2082 72.1677 64.2631 68.8159 67.7402C74.0674 62.2037 76.9349 54.8265 76.8012 47.1968C76.6675 39.5671 73.5432 32.295 68.1009 26.9459C62.6587 21.5968 55.3337 18.5986 47.7028 18.5967C40.0719 18.5948 32.7453 21.5893 27.3004 26.9356C27.2387 26.9951 27.178 27.0557 27.1174 27.1174C27.0568 27.1792 26.9951 27.2387 26.9356 27.3004C26.7449 27.4966 26.5586 27.6961 26.3845 27.8989C25.2823 29.1353 24.3551 30.5171 23.6289 32.0057C23.5639 32.1358 23.5022 32.2669 23.4427 32.3992C23.4118 32.4642 23.3821 32.5304 23.3534 32.5965C23.3247 32.6626 23.2939 32.7288 23.2663 32.796C23.2388 32.8632 23.2079 32.9305 23.1804 32.9977C23.1726 33.0175 23.1638 33.0363 23.1561 33.055C23.0415 33.3335 22.9342 33.6138 22.8343 33.896C22.8133 33.9544 22.7924 34.0128 22.7725 34.0723C22.7527 34.1319 22.7251 34.209 22.7031 34.2784C22.6127 34.5518 22.5278 34.8295 22.4518 35.1073C22.2 36.0073 22.0194 36.9257 21.9117 37.854C21.9018 37.9245 21.8941 37.9962 21.8875 38.0667C21.8489 38.4205 21.8224 38.7776 21.8059 39.1381C21.8059 39.2075 21.7993 39.278 21.7971 39.3475V39.353C21.7916 39.4808 21.7894 39.6098 21.7872 39.7388C21.8637 32.0859 24.9508 24.771 30.3804 19.3774C35.81 13.9837 43.1452 10.9452 50.7984 10.9196C58.4516 10.8939 65.807 13.8832 71.2727 19.2403C76.7383 24.5975 79.8744 31.8915 80.0021 39.5437C80.0021 39.5646 80.0021 39.5855 80.0021 39.6065C80.008 40.0951 80.004 40.583 79.99 41.0702C79.99 41.187 79.9834 41.3028 79.979 41.4185C79.9702 41.6764 79.9584 41.9336 79.9437 42.19C79.9437 42.265 79.936 42.3399 79.9316 42.4105C79.9132 42.7191 79.8912 43.0277 79.8655 43.3363C79.8522 43.484 79.8401 43.6317 79.8258 43.7772C79.8115 43.9227 79.7949 44.0913 79.7784 44.249C79.7619 44.4066 79.7431 44.5631 79.7255 44.7207C79.3713 47.7091 78.6817 50.648 77.6699 53.4821C77.66 53.5097 77.6489 53.5372 77.639 53.5659C77.5905 53.7011 77.5409 53.8366 77.4902 53.9726C77.2646 54.5773 77.0247 55.1769 76.7705 55.7714Z" fill="url(#paint7_linear)"/>
</g>
<defs>
<linearGradient id="paint0_linear" x1="59.1893" y1="36.0399" x2="8.43623" y2="65.3419" gradientUnits="userSpaceOnUse">
<stop offset="0.24" stop-color="#FFDC00"/>
<stop offset="0.73" stop-color="#FF8100"/>
</linearGradient>
<linearGradient id="paint1_linear" x1="67.5583" y1="10.8688" x2="13.7775" y2="41.9201" gradientUnits="userSpaceOnUse">
<stop offset="0.49" stop-color="#FFDC00"/>
<stop offset="0.99" stop-color="#FF8100"/>
</linearGradient>
<linearGradient id="paint2_linear" x1="51.6271" y1="20.9263" x2="6.9902" y2="46.6979" gradientUnits="userSpaceOnUse">
<stop offset="0.6" stop-color="#FFDC00"/>
<stop offset="1" stop-color="#FF8100"/>
</linearGradient>
<linearGradient id="paint3_linear" x1="66.2225" y1="38.0801" x2="12.4417" y2="69.1313" gradientUnits="userSpaceOnUse">
<stop stop-color="#FFDC00"/>
<stop offset="0.56" stop-color="#FF8100"/>
</linearGradient>
<linearGradient id="paint4_linear" x1="39709.5" y1="26956.8" x2="17710.6" y2="37199.6" gradientUnits="userSpaceOnUse">
<stop stop-color="#FFDC00"/>
<stop offset="0.56" stop-color="#FF8100"/>
</linearGradient>
<linearGradient id="paint5_linear" x1="49.8614" y1="25.7837" x2="2.92746" y2="52.8803" gradientUnits="userSpaceOnUse">
<stop offset="0.26" stop-color="#FFDC00"/>
<stop offset="1" stop-color="#FF8100"/>
</linearGradient>
<linearGradient id="paint6_linear" x1="48329.3" y1="13310.8" x2="23432.3" y2="31144" gradientUnits="userSpaceOnUse">
<stop offset="0.49" stop-color="#FFDC00"/>
<stop offset="0.99" stop-color="#FF8100"/>
</linearGradient>
<linearGradient id="paint7_linear" x1="77.0725" y1="27.1197" x2="30.1386" y2="54.2162" gradientUnits="userSpaceOnUse">
<stop stop-color="#FFDC00"/>
<stop offset="0.71" stop-color="#FF8100"/>
</linearGradient>
<clipPath id="clip0">
<rect width="80" height="80" fill="white"/>
</clipPath>
</defs>
</svg>
